<?xml version="1.0" standalone="no"?>
<!DOCTYPE svg PUBLIC "-//W3C//DTD SVG 1.1//EN" "http://www.w3.org/Graphics/SVG/1.1/DTD/svg11.dtd" >
<svg xmlns="http://www.w3.org/2000/svg">
<metadata>Generated by IcoMoon</metadata>
<defs>
<font id="icomoon" horiz-adv-x="1024">
<font-face units-per-em="1024" ascent="960" descent="-64" />
<missing-glyph horiz-adv-x="1024" />
<glyph unicode="&#x20;" horiz-adv-x="512" d="" />
<glyph unicode="&#xe900;" glyph-name="ruble" d="M558.545 432.485c145.436 0 263.758 118.322 263.758 263.758s-118.322 263.758-263.758 263.758c-0.568 0-1.133-0.009-1.694-0.031h-215.456c-0.022 0-0.040 0.003-0.059 0.003-25.706 0-46.545-20.84-46.545-46.545v-574.033h-46.549c-25.706 0-46.545-20.84-46.545-46.545s20.84-46.545 46.545-46.545h46.545v-263.758c0-25.706 20.84-46.545 46.545-46.545s46.545 20.84 46.545 46.545v263.758h170.667c25.706 0 46.545 20.84 46.545 46.545s-20.84 46.545-46.545 46.545h-170.667v93.091h170.667zM558.545 866.878c0.503 0 1.005 0.009 1.502 0.025 93.42-0.807 169.165-77.054 169.165-170.66 0-94.106-76.561-170.667-170.667-170.667h-170.667v341.302h170.667z" />
<glyph unicode="&#xe901;" glyph-name="euro-currency-symbol" d="M885.816 149.258c-60.487-63.625-137.93-98.67-218.069-98.67-131.345 0-245.072 92.237-298.595 225.567h364.834c31.636 0 57.286 25.65 57.286 57.286s-25.65 57.286-57.286 57.286h-393.946c-2.253 18.728-3.483 37.833-3.483 57.288 0 21.944 1.545 43.455 4.427 64.448h393.002c31.636 0 57.286 25.65 57.286 57.286s-25.65 57.288-57.286 57.288h-361.787c54.671 129.426 166.58 218.405 295.547 218.405 80.138 0 157.582-35.048 218.069-98.666 21.776-22.917 58.014-23.858 80.981-2.063 22.936 21.805 23.844 58.064 2.070 80.993-82.322 86.603-189.258 134.296-301.106 134.296-190.98 0-354.231-138.706-417.582-332.981h-153.512c-31.636 0-57.286-25.65-57.286-57.286s25.65-57.286 57.286-57.286h128.965c-2.321-21.14-3.649-42.608-3.649-64.448 0-19.384 1.013-38.463 2.865-57.288h-128.182c-31.636 0-57.286-25.65-57.286-57.286s25.65-57.286 57.286-57.286h151.238c61.623-198.029 226.523-340.141 419.841-340.141 111.86 0 218.769 47.705 301.091 134.293 21.788 22.936 20.894 59.19-2.056 80.993-22.921 21.805-59.19 20.894-80.967-2.028z" />
<glyph unicode="&#xe902;" glyph-name="ukraine-hryvna" d="M826.457 386.007h-311.114c31.308 24.109 63.746 46.304 91.68 67.709 6.928 5.292 13.67 10.734 20.325 16.219h199.106c28.28 0 51.193 22.915 51.193 51.19s-22.91 51.19-51.193 51.19h-104.466c14.243 21.811 26.395 45.207 35.336 71.024 23.024 66.566 11.541 143.216-26.965 201.47-97.11 146.928-296.625 136.066-435.557 63.079-58.459-30.716-6.713-119.085 51.676-88.411 68.961 36.228 145.524 52.582 220.939 27.787 51.591-16.961 94.44-63.794 98.91-118.851 5.043-62.41-32.753-114.75-76.358-156.127h-392.428c-28.273 0-51.193-22.918-51.193-51.19 0-28.275 22.918-51.19 51.193-51.19h260.895c-23.824-17.597-47.227-35.715-69.137-55.82-9.591-8.825-18.59-18.239-27.052-28.108h-164.706c-28.273 0-51.193-22.91-51.193-51.193 0-28.265 22.918-51.193 51.193-51.193h104.988c-33.267-92.396-22.79-197.292 52.075-274.519 103.552-106.839 281.184-80.642 401.407-22.067 59.358 28.923 7.426 117.193-51.678 88.413-93.070-45.364-263.65-69.688-307.837 54.904-21.241 59.902-10.091 109.905 17.374 153.257h412.581c28.28 0 51.193 22.925 51.193 51.193 0.002 28.28-22.908 51.234-51.188 51.234z" />
<glyph unicode="&#xe903;" d="M682.694 930.74l-59.749-165.661c55.151-182.007 55.151-452.149 0-634.164l59.749-165.644c198.83 70.308 341.306 259.835 341.306 482.747 0 222.877-142.476 412.413-341.306 482.723z" />
<glyph unicode="&#xe904;" d="M682.694 765.079v165.661c-53.396 18.883-110.826 29.255-170.698 29.255 78.95 0-30.518-267.57 170.698-194.917z" />
<glyph unicode="&#xe905;" d="M511.996-63.996c59.87 0 117.302 10.372 170.698 29.258v165.644c-199.195 19.88-170.698-194.902-170.698-194.902z" />
<glyph unicode="&#xe906;" d="M0 448.011c0-223.658 143.445-413.684 343.303-483.426v966.817c-199.859-69.741-343.303-259.768-343.303-483.391z" />
<glyph unicode="&#xe907;" d="M682.694 765.079v-634.164c55.158 182.015 55.158 452.16 0 634.164z" />
<glyph unicode="&#xe908;" d="M682.694 130.908v634.171c-34.859 115.069-91.748 194.917-170.698 194.917-59.127 0-115.854-10.154-168.692-28.594v-966.821c52.838-18.44 109.565-28.579 168.692-28.579 78.95 0.002 135.84 79.85 170.698 194.906z" />
<glyph unicode="&#xe909;" d="M90.173 738.111c-33.017-47.923-58.109-101.732-73.324-159.567h232.899l-159.575 159.567z" />
<glyph unicode="&#xe90a;" d="M368.61 939.506c-58.991-17.18-113.624-44.594-161.733-80.35l161.733-161.733v242.082z" />
<glyph unicode="&#xe90b;" d="M218.906 28.304c45.125-31.577 95.541-56.023 149.704-71.795v221.476l-149.704-149.681z" />
<glyph unicode="&#xe90c;" d="M22.725 296.823c16.929-54.836 42.871-105.71 76.024-150.965l150.965 150.965h-226.989z" />
<glyph unicode="&#xe90d;" d="M98.619 749.994c-2.862-3.913-5.683-7.882-8.448-11.892l159.575-159.567h-232.899c-3.774-14.365-6.855-29.007-9.393-43.85h306.491l-215.326 215.308z" />
<glyph unicode="&#xe90e;" d="M207.029 36.753c3.896-2.903 7.899-5.666 11.875-8.448l149.704 149.687v-221.476c14.382-4.205 28.99-7.834 43.85-10.753v296.413l-205.429-205.423z" />
<glyph unicode="&#xe90f;" d="M11.349 340.673c3.178-14.858 6.929-29.491 11.367-43.85h226.991l-150.965-150.965c16.419-22.433 34.626-43.485 54.408-62.952l257.764 257.766h-399.565z" />
<glyph unicode="&#xe910;" d="M368.61 939.506v-242.082l-161.735 161.724c-22.297-16.581-43.139-34.989-62.45-54.916l268.026-268.026v414.053c-14.852-2.936-29.459-6.574-43.841-10.753z" />
<glyph unicode="&#xe911;" d="M368.61 298.369l-1.537-1.546h1.537z" />
<glyph unicode="&#xe912;" d="M410.923 340.673h1.535v1.544z" />
<glyph unicode="&#xe913;" d="M607.96 534.695h-1.479v-1.487z" />
<glyph unicode="&#xe914;" d="M370.121 578.536l-1.511 1.52v-1.52z" />
<glyph unicode="&#xe915;" d="M412.458 536.208v-1.513h1.513z" />
<glyph unicode="&#xe916;" d="M650.323 69.85v-114.772c54.869 15.36 106.025 39.572 151.782 71.117l-124.36 124.36c-9.938-34.915-13.574-52.966-27.422-80.704z" />
<glyph unicode="&#xe917;" d="M678.398 725.508l135.759 135.759c-48.772 35.717-104.101 62.936-163.836 79.671v-117.9c15.967-31.973 17.31-56.267 28.077-97.529z" />
<glyph unicode="&#xe918;" d="M923.15 142.875c34.189 45.992 60.835 97.908 78.142 153.948h-232.091l153.948-153.948z" />
<glyph unicode="&#xe919;" d="M1007.153 578.536c-15.539 59.056-41.383 113.875-75.442 162.55l-162.567-162.55h238.010z" />
<glyph unicode="&#xe91a;" d="M708.287 331.998l203.594-203.594c3.824 4.786 7.622 9.555 11.278 14.462l-153.948 153.948h232.091c4.423 14.35 8.18 28.99 11.349 43.85h-301.073c-0.493-6.217-2.7-2.49-3.29-8.667z" />
<glyph unicode="&#xe91b;" d="M673.080 699.832l152.638 152.655c-3.824 2.966-7.655 5.917-11.561 8.779l-135.759-135.759c1.407-5.368-6.628-20.178-5.318-25.676z" />
<glyph unicode="&#xe91c;" d="M650.323 832.471v108.475c-14.365 4.025-28.99 7.437-43.85 10.219v-52.912c16.315-17.688 30.94-39.905 43.85-65.781z" />
<glyph unicode="&#xe91d;" d="M704.834 534.695h311.72c-2.531 14.843-5.619 29.476-9.393 43.85h-238.010l162.567 162.55c-15.982 22.831-33.743 44.302-53.146 64.197l-183.109-183.091c4.931-33.212 7.138-52.499 9.369-87.505z" />
<glyph unicode="&#xe91e;" d="M670.347 157.969l131.766-131.781c21.916 15.094 42.555 31.893 61.812 50.13l-173.318 173.326c-5.532-32.055-12.095-63.016-20.26-91.675z" />
<glyph unicode="&#xe91f;" d="M606.481 3.835v-58.974c14.858 2.765 29.476 6.194 43.85 10.219v114.772c-12.919-25.888-27.543-48.353-43.85-66.017z" />
<glyph unicode="&#xe920;" d="M695.465 622.2l183.091 183.091c-16.484 16.929-34.156 32.684-52.847 47.196l-143.868-143.891c6.395-26.726 9.298-57.318 13.624-86.396z" />
<glyph unicode="&#xe921;" d="M486.445 959.369c8.53 0.413 17.035 0.631 25.546 0.631-8.561 0-17.080-0.218-25.546-0.631z" />
<glyph unicode="&#xe922;" d="M511.991-64c-8.513 0-17.018 0.233-25.531 0.646 8.466-0.428 16.97-0.646 25.531-0.646z" />
<glyph unicode="&#xe923;" d="M511.991-64c32.304 0 63.849 3.128 94.488 8.861v58.974c-26.895-29.152-58.358-67.835-94.488-67.835z" />
<glyph unicode="&#xe924;" d="M1016.546 534.695h-307.669c4.075-64.214 3.582-130.246-1.472-194.021h305.246c7.389 34.626 11.349 70.503 11.349 107.318 0 29.573-2.635 58.498-7.454 86.703z" />
<glyph unicode="&#xe925;" d="M708.287 331.998c-2.845-30.252-12.757-53.824-17.688-82.362l173.318-173.318c17.147 16.25 33.177 33.631 47.955 52.086l-203.585 203.594z" />
<glyph unicode="&#xe926;" d="M606.481 894.446v56.71c-30.631 5.716-62.175 8.844-94.49 8.844 36.13 0 67.593-36.411 94.49-65.554z" />
<glyph unicode="&#xe927;" d="M650.323 47.707c13.848 27.745 25.723 59.685 35.667 94.594l-35.667 35.667v-130.261z" />
<glyph unicode="&#xe928;" d="M690.428 737.538c-10.785 41.262-24.139 78.774-40.106 110.747v-150.835l40.106 40.088z" />
<glyph unicode="&#xe929;" d="M718.222 322.071c0.582 6.176 1.107 12.376 1.608 18.602h-20.211l18.602-18.602z" />
<glyph unicode="&#xe92a;" d="M650.323 697.448v150.844c-12.919 25.877-27.535 48.109-43.85 65.781v-280.83l88.061 88.061c-1.325 5.497-2.717 10.882-4.107 16.25l-40.103-40.106z" />
<glyph unicode="&#xe92b;" d="M607.96 534.695h113.341c-2.222 35.004-5.763 69.443-10.688 102.646l-102.653-102.646z" />
<glyph unicode="&#xe92c;" d="M606.481-18.066c16.315 17.688 30.931 39.905 43.85 65.781v130.261l35.667-35.667c8.18 28.674 15.044 59.307 20.591 91.36l-100.106 100.1-0.002-351.835z" />
<glyph unicode="&#xe92d;" d="M606.481-18.066v351.835l100.1-100.106c4.922 28.547 8.796 58.15 11.633 88.409l-18.602 18.602h20.211c5.052 63.777 5.545 129.809 1.472 194.021h-113.341l102.646 102.646c-4.326 29.087-9.676 57.221-16.071 83.956l-88.046-88.061v280.83c-26.899 29.152-58.362 45.934-94.492 45.934-8.513 0-17.018-0.218-25.546-0.631-25.183-1.26-49.879-4.358-73.988-9.112v-414.051l-268.033 268.026c-16.469-16.994-31.787-35.101-45.806-54.237l215.324-215.308h-306.489c-4.801-28.196-7.454-57.121-7.454-86.695 0-36.824 3.978-72.693 11.349-107.318h399.574l-257.766-257.766c16.879-16.581 34.85-32.023 53.874-46.152l205.42 205.42v-296.417c24.106-4.754 48.82-7.849 74.003-9.112 8.513-0.413 17.018-0.646 25.531-0.646 36.137 0 67.599 16.782 94.496 45.934z" />
<glyph unicode="&#xe92e;" d="M702.061 447.992h321.939c0 282.786-229.23 512.008-512.008 512.008 141.385 0 190.077-256.012 190.069-512.008z" />
<glyph unicode="&#xe92f;" d="M0 447.992h724.066c0.009 255.995-70.689 512.008-212.074 512.008-282.763 0-511.992-229.221-511.992-512.008z" />
<glyph unicode="&#xe930;" d="M691.284 447.992c0-255.995-37.899-511.992-179.292-511.992 282.78 0 512.008 229.23 512.008 511.992h-332.716z" />
<glyph unicode="&#xe931;" d="M724.066 447.992h-724.066c0-282.763 229.23-511.992 511.992-511.992 141.385 0 212.074 255.995 212.074 511.992z" />
<glyph unicode="&#xe932;" d="M1024 447.981c0-282.758-229.221-511.978-511.978-511.978s-511.978 229.221-511.978 511.978c0 282.758 229.221 511.978 511.978 511.978s511.978-229.221 511.978-511.978z" />
<glyph unicode="&#xe933;" d="M994.736 618.711h-315.46c13.704-109.372 13.784-229.883 0.266-339.391h315.867c18.44 52.83 28.577 109.564 28.577 168.676 0.009 59.888-10.364 117.319-29.249 170.715z" />
<glyph unicode="&#xe934;" d="M679.276 618.711h315.454c-0.048 0.162-0.097 0.298-0.162 0.445-65.522 184.762-234.079 320.698-436.597 338.743 78.378-42.959 101.272-179.066 121.305-339.188z" />
<glyph unicode="&#xe935;" d="M557.988-61.875c202.88 18.077 371.671 154.482 436.942 339.739 0.171 0.493 0.316 0.979 0.493 1.455h-315.873c-19.88-160.989-42.871-298.056-121.562-341.194z" />
<glyph unicode="&#xe936;" d="M0 447.998c0-59.121 10.154-115.846 28.577-168.676h677.319c13.533 109.517 13.436 230.020-0.251 339.391h-676.387c-18.885-53.399-29.258-110.829-29.258-170.715z" />
<glyph unicode="&#xe937;" d="M29.418 619.154c-0.048-0.145-0.097-0.283-0.162-0.445h676.39c-20.049 160.124-69.299 296.229-147.666 339.188-15.159 1.342-30.486 2.101-45.99 2.101-222.728 0.002-412.134-142.246-482.571-340.844z" />
<glyph unicode="&#xe938;" d="M705.896 279.321h-677.319c0.171-0.478 0.331-0.962 0.493-1.455 70.157-199.106 259.835-341.858 482.92-341.858 15.507 0 30.834 0.761 45.99 2.119 78.7 43.136 128.037 180.203 147.917 341.194z" />
<glyph unicode="&#xe939;" d="M511.999-64c163.821 0 309.541 77.002 403.255 196.707h-269.662c-34.812-116.043-54.24-196.707-133.592-196.707z" />
<glyph unicode="&#xe93a;" d="M481.634-63.118c-0.097 0-0.186 0.015-0.283 0.015 0.097 0 0.195-0.015 0.283-0.015z" />
<glyph unicode="&#xe93b;" d="M645.591 763.293h269.669c-93.722 119.687-239.444 196.707-403.261 196.707 79.352 0 98.78-80.664 133.592-196.707z" />
<glyph unicode="&#xe93c;" d="M481.351 959.086c0.097 0 0.186 0.015 0.283 0.015-0.089 0.002-0.186 0.002-0.283-0.015z" />
<glyph unicode="&#xe93d;" d="M915.266 763.293h-269.675c54.424-181.397 54.424-449.213 0-630.584h269.651c68.070 86.923 108.757 196.311 108.757 315.288 0.009 118.968-40.681 228.365-108.734 315.296z" />
<glyph unicode="&#xe93e;" d="M511.999-64c-10.187 0-20.308 0.298-30.365 0.882 10.2-0.566 20.341-0.882 30.365-0.882z" />
<glyph unicode="&#xe93f;" d="M481.634 959.103c10.055 0.599 20.179 0.897 30.365 0.897-10.024 0-20.166-0.331-30.365-0.897z" />
<glyph unicode="&#xe940;" d="M683.253 132.707h-574.493c87.82-112.186 221.341-186.868 372.589-195.81 0.097 0 0.186-0.015 0.283-0.015 10.057-0.582 20.179-0.882 30.365-0.882 79.354 0 136.437 80.664 171.256 196.707z" />
<glyph unicode="&#xe941;" d="M108.759 763.293h574.495c-34.821 116.043-91.904 196.707-171.256 196.707-10.187 0-20.308-0.298-30.365-0.897-0.097 0-0.186-0.015-0.283-0.015-151.25-8.935-284.771-83.626-372.591-195.795z" />
<glyph unicode="&#xe942;" d="M0.002 447.997c0-118.976 40.688-228.365 108.757-315.288h574.495c54.424 181.38 54.424 449.198 0 630.584h-574.495c-68.070-86.931-108.757-196.329-108.757-315.296z" />
<glyph unicode="&#xe943;" glyph-name="facebook" d="M150-64h334v364h-120v120h120v150c0 82.711 67.289 150 150 150h150v-120h-120c-33.086 0-60-26.914-60-60v-120h174.586l-20-120h-154.586v-364h270c82.711 0 150 67.289 150 150v724c0 82.711-67.289 150-150 150h-724c-82.711 0-150-67.289-150-150v-724c0-82.711 67.289-150 150-150zM60 810c0 49.625 40.375 90 90 90h724c49.625 0 90-40.375 90-90v-724c0-49.625-40.375-90-90-90h-210v244h145.414l40 240h-185.414v60h180v240h-210c-115.797 0-210-94.203-210-210v-90h-120v-240h120v-244h-274c-49.625 0-90 40.375-90 90v724z" />
<glyph unicode="&#xe944;" glyph-name="instagram" d="M150-64h724c82.711 0 150 67.289 150 150v724c0 82.711-67.289 150-150 150h-724c-82.711 0-150-67.289-150-150v-724c0-82.711 67.289-150 150-150zM60 810c0 49.625 40.375 90 90 90h724c49.625 0 90-40.375 90-90v-724c0-49.625-40.375-90-90-90h-724c-49.625 0-90 40.375-90 90v724zM530.963 163.556c146.384 0 265.481 119.098 265.481 265.481s-119.098 265.481-265.481 265.481c-146.384 0-265.481-119.098-265.481-265.481s119.098-265.481 265.481-265.481zM530.963 635.523c113.859 0 206.486-92.627 206.486-206.486s-92.627-206.486-206.486-206.486c-113.859 0-206.486 92.627-206.486 206.486s92.627 206.486 206.486 206.486zM777.481 618.667c52.28 0 94.815 42.535 94.815 94.815s-42.535 94.815-94.815 94.815c-52.28 0-94.815-42.535-94.815-94.815s42.535-94.815 94.815-94.815zM777.481 745.086c17.424 0 31.605-14.181 31.605-31.605s-14.181-31.605-31.605-31.605c-17.424 0-31.605 14.181-31.605 31.605s14.181 31.605 31.605 31.605z" />
<glyph unicode="&#xe945;" glyph-name="distance-between-points" horiz-adv-x="870" d="M409.6 363.723c0 102.935-91.872 186.677-204.802 186.677-112.928 0-204.798-83.743-204.798-186.677 0-30.164 7.896-58.676 21.896-83.916l182.902-343.806 182.935 343.859c13.979 25.229 21.868 53.722 21.868 83.863zM204.798 260.415c-62.492 0-113.336 46.345-113.336 103.307s50.844 103.307 113.336 103.307c62.494 0 113.336-46.345 113.336-103.307s-50.842-103.307-113.336-103.307zM768 960c-56.462 0-102.4-41.871-102.4-93.337 0-15.083 3.95-29.338 10.949-41.961l91.451-171.903 91.465 171.93c6.99 12.615 10.935 26.861 10.935 41.931 0 51.468-45.94 93.339-102.4 93.339zM768 815.009c-31.248 0-56.669 23.171-56.669 51.654 0 28.481 25.421 51.654 56.669 51.654 31.243 0 56.666-23.173 56.666-51.654 0-28.483-25.423-51.654-56.666-51.654zM653.018 340.199c-3.751 18.312-8.624 36.257-14.761 53.876-8.226 23.607-18.092 46.676-25.65 70.551-14.124 44.628 10.243 81.872 14.821 88.642 8.023 11.854 17.405 22.732 27.304 32.921 19.059 19.612 40.078 37.145 62.068 53.292-2.724 4.381-5.363 8.809-7.876 13.319-31.628-12.87-194.281-71.875-190.315-202.228 0.795-26.131 10.522-51.001 16.517-76.331 2.888-12.206 5.392-24.52 6.924-36.994 0.66-5.616 1.066-11.265 1.509-16.909 0.012 0.043 0.008 0.073-0.017 0.097 0.014-0.163 0.418-17.889-0.339-25.568-2.374-24.041-5.794-48.33-15.558-70.384-9.081-20.504-22.783-38.335-39.73-52.43-38.743-32.216-90.075-45.095-138.512-50.273-2.306-0.251-4.612-0.466-6.918-0.675l-86.484-185.105c42.672 2.752 85.234 8.814 126.759 19.421 48.867 12.485 96.491 31.344 139.162 59.297 42.634 27.923 79.299 65.7 103.707 111.692 25.534 48.109 35.764 103.214 33.586 157.818-0.739 18.652-2.445 37.665-6.196 55.971z" />
<glyph unicode="&#xe946;" glyph-name="credit-cards-payment" horiz-adv-x="1135" d="M1093.574 808.479l-659.769 150.313c-27.914 6.358-55.581-13.030-61.487-43.080l-12.535-86.718 761.262-173.426 12.535 86.718c5.906 30.039-12.093 59.834-40.007 66.193zM791.206 591.831c-8.037 27.56-38.282 43.851-67.214 36.21l-130.618-34.53-307.925 62.057-33.865-152.372-211.591-55.925c-28.931-7.643-46.038-36.444-38.014-63.996l119.244-409.188c8.037-27.55 38.284-43.851 67.214-36.199l683.999 180.757c28.931 7.653 46.038 36.444 38.014 64.006l-20.468 70.245 76.712-15.444c29.111-5.875 57.964 12.009 64.123 39.73l48.534 218.4-276.321 55.682-11.824 40.566zM870.198 383.865l16.916 76.133c2.541 11.399 14.41 18.752 26.379 16.345l79.949-16.119c11.982-2.419 19.703-13.71 17.175-25.12l-16.916-76.133c-2.541-11.399-14.408-18.762-26.379-16.345l-79.949 16.109c-11.993 2.428-19.715 13.731-17.175 25.13zM51.896 406.438l683.975 180.747c0.877 0.226 1.753 0.332 2.609 0.332 3.855 0 8.464-2.409 9.812-7.022l5.643-19.351 17.68-60.665-703.42-185.884-23.323 80.006c-1.461 5.020 1.755 10.447 7.025 11.838zM867.557 171.329c0.899-3.105-0.044-5.673-1-7.279-0.944-1.605-2.765-3.704-6.025-4.559l-683.986-180.757c-0.865-0.226-1.753-0.343-2.609-0.343-3.855 0-8.464 2.419-9.812 7.033l-69.551 238.673 703.42 185.895 69.562-238.662zM274.054 163.526c-4.338 15.601-20.622 24.812-36.222 20.488l-105.586-29.313c-15.585-4.324-24.81-20.624-20.472-36.224l29.297-105.579c4.338-15.601 20.622-24.812 36.222-20.473l105.586 29.299c15.599 4.324 24.81 20.624 20.486 36.224l-29.311 105.579z" />
<glyph unicode="&#xe947;" glyph-name="passage-of-time" d="M1021.952 521.65c-3.551 7.56-11.133 12.397-19.521 12.397h-63.77c-40.545 220.025-233.75 387.282-465.322 387.282-260.984 0-473.339-212.356-473.339-473.339s212.334-473.318 473.339-473.318c168.434 0 325.516 90.655 409.94 236.539 11.896 20.588 4.88 46.885-15.73 58.802-20.567 11.917-46.885 4.902-58.759-15.686-69.108-119.413-197.65-193.619-335.451-193.619-213.532 0-387.282 173.728-387.282 387.238 0 213.554 173.749 387.282 387.282 387.282 183.924 0 338.022-128.999 377.282-301.202h-63.269c-8.388 0-15.948-4.837-19.521-12.397-3.551-7.56-2.397-16.471 2.963-22.898l107.583-129.087c4.096-4.902 10.131-7.734 16.536-7.734 6.384 0 12.44 2.854 16.514 7.734l107.583 129.087c5.36 6.449 6.492 15.36 2.941 22.92zM473.339 813.745c-23.769 0-43.029-19.26-43.029-43.029v-261.093c-19.456-13.639-32.266-36.122-32.266-61.657 0-41.526 33.791-75.317 75.317-75.317 11.373 0 22.092 2.723 31.765 7.277l149.675-86.385c6.797-3.943 14.161-5.795 21.482-5.795 14.859 0 29.325 7.713 37.299 21.525 11.874 20.545 4.837 46.885-15.774 58.759l-149.828 86.515c-2.004 22.745-13.835 42.615-31.569 55.033v261.136c-0.044 23.748-19.325 43.029-43.072 43.029zM473.339 415.723c-17.8 0-32.266 14.488-32.266 32.244 0 17.778 14.488 32.266 32.266 32.266s32.266-14.488 32.266-32.266c0-17.756-14.488-32.244-32.266-32.244z" />
<glyph unicode="&#xe948;" glyph-name="next" d="M774.115 468.413l-483.056 483.056c-11.374 11.374-29.614 11.374-40.988 0s-11.374-29.614 0-40.988l462.455-462.455-462.455-462.455c-11.374-11.374-11.374-29.614 0-40.988 5.58-5.58 13.090-8.584 20.387-8.584s14.807 2.79 20.387 8.584l483.056 483.056c11.374 11.159 11.374 29.614 0.215 40.773z" />
<glyph unicode="&#xe949;" glyph-name="exchange" horiz-adv-x="1152" d="M93.009 513.809c6.042-2.489 13.050-2.489 19.092 0.497l188.739 88.343c12.082 5.972 17.157 20.904 11.357 33.345-5.557 11.945-19.332 17.42-31.174 11.945l-132.19-61.964c63.074 194.354 238.763 324.255 441.034 324.255 211.938 0 397.292-145.828 450.699-354.614 3.383-13.188 16.675-21.153 29.482-17.668 12.807 3.483 20.542 17.171 17.157 30.359-58.966 230.436-263.412 391.692-497.34 391.692-223.053 0-417.109-143.339-487.19-357.85l-55.581 143.089c-4.107 12.941-17.882 20.157-30.449 15.927s-19.575-18.414-15.467-31.355c0.242-0.996 0.725-1.99 1.208-2.986l77.091-199.081c2.417-6.222 7.25-11.448 13.535-13.935zM1150.53 167.727c-0.242 0.497-0.483 0.996-0.483 1.493l-77.104 199.12c-2.418 6.223-7.251 11.45-13.535 13.938-6.043 2.49-13.052 2.24-19.095-0.497l-188.772-88.361c-12.327-5.227-18.128-19.911-13.052-32.605s19.336-18.668 31.663-13.441c0.483 0.25 0.968 0.497 1.45 0.747l132.213 61.976c-63.567-194.392-239.53-324.319-441.594-324.319-211.975 0-397.362 145.857-450.778 354.684-3.383 13.191-16.678 21.157-29.487 17.671-12.81-3.484-20.546-17.174-17.16-30.365 58.734-230.731 263.458-391.769 497.427-391.769 223.092 0 416.94 143.367 487.276 357.92l55.591-143.117c4.593-12.944 18.37-19.664 30.937-14.934 12.567 4.728 19.093 18.915 14.502 31.859z" />
<glyph unicode="&#xe94a;" glyph-name="navigation" horiz-adv-x="1260" d="M1235.96-31.349c5.083 7.64 4.709 17.526-0.913 24.667l-723.969 920.786c-5.838 7.398-15.931 10.175-24.945 6.822s-14.779-12.026-14.233-21.391l27.438-481.638-436.157-156.478c-9.076-3.279-14.99-11.987-14.477-21.403 0.061-1.235 0.223-2.425 0.492-3.591 1.802-7.804 7.985-14.069 16.155-15.909l1147.173-261.199c8.981-2.047 18.375 1.7 23.437 9.334zM146.724 246.009l382.652 137.264c9.118 3.289 15.023 12.038 14.479 21.491l-24.369 428.186 643.381-818.313-1016.143 231.371z" />
<glyph unicode="&#xe94b;" glyph-name="back-1" d="M311.568 448.027l462.455 462.455c11.374 11.374 11.374 29.614 0 40.988s-29.614 11.374-40.988 0l-483.056-483.056c-11.374-11.374-11.374-29.614 0-40.988l483.056-482.842c5.58-5.58 13.090-8.584 20.387-8.584s14.807 2.79 20.387 8.584c11.374 11.374 11.374 29.614 0 40.988l-462.24 462.455z" />
<glyph unicode="&#xe94c;" glyph-name="stopwatch" d="M512 960c-9.438 0-17.067-7.629-17.067-17.067v-226.85c0-9.438 7.629-17.067 17.067-17.067s17.067 7.629 17.067 17.067v209.476c255.642-9.011 460.8-219.785 460.8-477.559 0-263.492-214.374-477.867-477.867-477.867s-477.867 214.374-477.867 477.867c0 127.317 49.493 247.108 139.366 337.306 6.673 6.69 6.639 17.476-0.034 24.132-6.69 6.622-17.476 6.622-24.132-0.034-96.307-96.631-149.333-224.99-149.333-361.404 0-282.317 229.683-512 512-512s512 229.683 512 512-229.683 512-512 512zM487.339 387.721c10.479-14.421 26.675-23.484 44.442-24.866 1.587-0.137 3.174-0.188 4.745-0.188 16.077 0 31.539 6.349 42.991 17.818 12.578 12.578 19.012 29.969 17.63 47.735s-10.445 33.963-24.9 44.476l-220.911 159.795c-6.758 4.881-16.128 4.13-22.067-1.775-5.939-5.939-6.673-15.292-1.775-22.067l159.846-220.928zM552.192 445.065c6.332-4.608 10.308-11.725 10.923-19.524 0.614-7.782-2.219-15.411-7.731-20.941-5.53-5.513-13.295-8.329-20.958-7.731-7.782 0.597-14.899 4.591-19.473 10.871l-97.502 134.775 134.741-97.451z" />
<glyph unicode="&#xe94d;" glyph-name="child" d="M479.311 484.953c57.984 0 105.155 47.179 105.155 105.163s-47.171 105.155-105.155 105.155c-57.973 0-105.14-47.171-105.14-105.155s47.167-105.163 105.14-105.163zM479.311 660.526c38.824 0 70.411-31.587 70.411-70.407 0-38.828-31.587-70.418-70.411-70.418-38.812 0-70.395 31.591-70.395 70.418 0.004 38.82 31.583 70.407 70.395 70.407zM405.481 147.627v-166.865c0-9.596 7.779-17.374 17.374-17.374s17.37 7.775 17.37 17.374v175.808c0 0.269-0.027 0.53-0.038 0.795 0.027 6.238-3.307 12.284-9.196 15.423-22.237 11.846-36.050 34.741-36.050 59.743v99.689c0 37.272 30.319 67.591 67.58 67.591h34.283c37.264 0 67.58-30.319 67.58-67.591v-99.689c0-25.003-13.817-47.893-36.050-59.747-6.008-3.2-9.35-9.426-9.184-15.799 0-0.138-0.019-0.273-0.019-0.415v-175.808c0-9.596 7.779-17.374 17.374-17.374s17.374 7.775 17.374 17.374v166.892c28.153 18.972 45.25 50.601 45.25 84.877v99.689c0 56.428-45.903 102.335-102.324 102.335h-34.283c-56.421 0-102.324-45.907-102.324-102.335v-99.689c-0.004-34.299 17.109-65.943 45.285-84.904z" />
<glyph unicode="&#xe94e;" glyph-name="men-women" d="M306.491 722.317c57.976 0 105.143 47.163 105.143 105.14 0 57.984-47.163 105.155-105.143 105.155-57.973 0-105.14-47.171-105.14-105.155 0-57.976 47.167-105.14 105.14-105.14zM306.491 897.867c38.816 0 70.395-31.587 70.395-70.411 0-38.812-31.579-70.395-70.395-70.395-38.812 0-70.395 31.579-70.395 70.395 0 38.824 31.583 70.411 70.395 70.411zM205.277 293.677v-312.914c0-9.596 7.779-17.374 17.37-17.374 9.596 0 17.37 7.775 17.37 17.374v321.861c0 0.265-0.027 0.53-0.038 0.795 0.027 6.238-3.307 12.288-9.2 15.427-22.226 11.835-36.031 34.725-36.031 59.743v190.977c0 37.272 30.315 67.591 67.58 67.591h89.045c37.264 0 67.58-30.323 67.58-67.591v-190.977c0-25.011-13.817-47.905-36.054-59.743-6.012-3.2-9.354-9.426-9.188-15.799-0.004-0.142-0.019-0.277-0.019-0.419v-321.861c0-9.596 7.779-17.374 17.374-17.374s17.37 7.775 17.37 17.374v312.941c28.164 18.957 45.266 50.593 45.266 84.881v190.977c0 56.428-45.903 102.339-102.324 102.339h-89.048c-56.425-0.008-102.328-45.919-102.328-102.347v-190.977c0-34.306 17.105-65.955 45.277-84.904zM719.126 667.541c57.976 0 105.14 47.159 105.14 105.132 0 57.999-47.163 105.186-105.14 105.186-57.98 0-105.151-47.186-105.151-105.186 0-57.973 47.171-105.132 105.151-105.132zM719.126 843.114c38.816 0 70.395-31.602 70.395-70.441 0-38.808-31.583-70.384-70.395-70.384-38.824 0-70.407 31.575-70.407 70.384 0 38.839 31.583 70.441 70.407 70.441zM543.61 231.348h101.667v-250.59c0-9.596 7.779-17.374 17.374-17.374s17.374 7.775 17.374 17.374v267.964c0 1.202-0.123 2.374-0.353 3.503-0.119 0.565-0.257 1.122-0.43 1.663-2.201 7.072-8.797 12.208-16.59 12.208-0.004 0-0.004 0-0.008 0h-90.923l78.727 157.469c1.206 2.408 1.836 5.070 1.836 7.767v84.224c0 36.846 29.989 66.823 66.846 66.823 36.853 0 66.834-29.977 66.834-66.823v-84.224c0-2.7 0.626-5.359 1.832-7.767l78.727-157.469h-90.212c0 0-0.004 0-0.008 0-7.794 0-14.393-5.136-16.59-12.208-0.169-0.545-0.311-1.099-0.426-1.663-0.234-1.129-0.353-2.301-0.353-3.503v-267.964c0-9.596 7.775-17.374 17.37-17.374s17.374 7.775 17.374 17.374v250.59h100.956c6.019 0 11.612 3.119 14.781 8.24 3.161 5.12 3.449 11.516 0.761 16.902l-89.467 178.946v80.125c0 56.006-45.565 101.567-101.575 101.567-56.017 0-101.59-45.561-101.59-101.567v-80.125l-89.463-178.946c-2.693-5.385-2.405-11.777 0.761-16.902 3.158-5.12 8.75-8.24 14.77-8.24z" />
<glyph unicode="&#xe94f;" glyph-name="calendar" d="M15 212.336c8.281 0 15 6.711 15 15v436.883h886.258v-164.883c0-8.289 6.719-15 15-15 8.289 0 15 6.711 15 15v296.445c0 50.289-40.914 91.203-91.195 91.203h-39.336v18.578c0 20.094-16.344 36.437-36.437 36.437h-27.867c-20.086 0-36.43-16.344-36.43-36.437v-18.578h-99.484v18.578c0 20.094-16.344 36.437-36.437 36.437h-27.867c-20.086 0-36.43-16.344-36.43-36.437v-18.578h-99.492v18.578c0 20.094-16.344 36.437-36.437 36.437h-27.859c-20.094 0-36.437-16.344-36.437-36.437v-18.578h-99.484v18.578c0 20.094-16.344 36.437-36.437 36.437h-27.859c-20.094 0-36.437-16.344-36.437-36.437v-18.578h-23.125c-50.289 0-91.203-40.914-91.203-91.203v-568.445c0-8.289 6.719-15 15-15zM744.992 905.562c0 3.547 2.891 6.437 6.437 6.437h27.867c3.547 0 6.43-2.891 6.43-6.437v-72.875c0-3.547-2.883-6.437-6.43-6.437h-27.867c-3.547 0-6.437 2.883-6.437 6.437zM544.773 905.562c0 3.547 2.883 6.437 6.43 6.437h27.867c3.547 0 6.437-2.891 6.437-6.437v-72.875c0-3.547-2.891-6.437-6.437-6.437h-27.867c-3.547 0-6.43 2.883-6.43 6.437zM344.547 905.562c0 3.547 2.891 6.437 6.437 6.437h27.867c3.547 0 6.437-2.891 6.437-6.437v-72.875c0-3.547-2.891-6.437-6.437-6.437h-27.867c-3.547 0-6.437 2.883-6.437 6.437zM144.328 905.562c0 3.547 2.891 6.437 6.437 6.437h27.867c3.547 0 6.43-2.891 6.43-6.437v-72.875c0-3.547-2.883-6.437-6.43-6.437h-27.867c-3.547 0-6.437 2.883-6.437 6.437zM91.203 856.984h23.125v-24.297c0-20.094 16.344-36.437 36.437-36.437h27.867c20.086 0 36.43 16.344 36.43 36.437v24.297h99.492v-24.297c0-20.094 16.344-36.437 36.43-36.437h27.867c20.094 0 36.437 16.344 36.437 36.437v24.297h99.484v-24.297c0-20.094 16.344-36.437 36.437-36.437h27.867c20.086 0 36.43 16.344 36.43 36.437v24.297h99.484v-24.297c0-20.094 16.344-36.437 36.437-36.437h27.867c20.086 0 36.43 16.344 36.43 36.437v24.297h39.336c33.75 0 61.203-27.453 61.203-61.203v-101.562h-886.266v101.562c0 33.75 27.453 61.203 61.203 61.203zM169.82 72.836h-130.797c-4.977 0-9.023 4.047-9.023 9.023v77.117c0 8.289-6.719 15-15 15s-15-6.711-15-15v-77.117c0-21.516 17.508-39.023 39.023-39.023h130.797c8.281 0 15 6.719 15 15 0 8.289-6.719 15-15 15zM169.32 620.477h-52.141c-8.281 0-15-6.719-15-15 0-8.289 6.719-15 15-15h52.141c8.281 0 15 6.711 15 15 0 8.281-6.719 15-15 15zM277.414 590.477h52.141c8.281 0 15 6.711 15 15 0 8.281-6.719 15-15 15h-52.141c-8.281 0-15-6.719-15-15 0-8.289 6.719-15 15-15zM437.648 590.477h52.133c8.281 0 15 6.711 15 15 0 8.281-6.719 15-15 15h-52.133c-8.289 0-15-6.719-15-15 0-8.289 6.711-15 15-15zM597.875 590.477h52.141c8.281 0 15 6.711 15 15 0 8.281-6.719 15-15 15h-52.141c-8.281 0-15-6.719-15-15 0-8.289 6.719-15 15-15zM810.242 620.477h-52.133c-8.289 0-15-6.719-15-15 0-8.289 6.711-15 15-15h52.133c8.281 0 15 6.711 15 15 0 8.281-6.719 15-15 15zM169.32 545.047h-52.141c-8.281 0-15-6.711-15-15s6.719-15 15-15h52.141c8.281 0 15 6.711 15 15s-6.719 15-15 15zM277.414 515.047h52.141c8.281 0 15 6.711 15 15s-6.719 15-15 15h-52.141c-8.281 0-15-6.711-15-15s6.719-15 15-15zM437.648 515.047h52.133c8.281 0 15 6.711 15 15s-6.719 15-15 15h-52.133c-8.289 0-15-6.711-15-15s6.711-15 15-15zM597.875 515.047h52.141c8.281 0 15 6.711 15 15s-6.719 15-15 15h-52.141c-8.281 0-15-6.711-15-15s6.719-15 15-15zM810.242 545.047h-52.133c-8.289 0-15-6.711-15-15s6.711-15 15-15h52.133c8.281 0 15 6.711 15 15s-6.719 15-15 15zM277.781 220.57l77.125-77.125c11.156-11.156 25.984-17.297 41.766-17.297s30.617 6.141 41.766 17.297l211.211 211.211c23.031 23.031 23.031 60.508 0 83.539s-60.508 23.031-83.539 0l-169.437-169.437-35.359 35.352c-23.023 23.031-60.5 23.031-83.539 0-23.023-23.031-23.023-60.508 0.008-83.539zM298.992 282.898c5.664 5.664 13.109 8.5 20.555 8.5s14.891-2.836 20.555-8.5l45.961-45.961c5.859-5.859 15.352-5.859 21.211 0l180.047 180.039c11.344 11.336 29.781 11.336 41.109 0.008 11.336-11.336 11.336-29.781 0-41.117l-211.203-211.203c-5.492-5.492-12.789-8.516-20.555-8.516s-15.062 3.023-20.555 8.516l-77.125 77.125c-11.336 11.336-11.336 29.773 0 41.109zM946.258 311.281v119.695c0 8.289-6.711 15-15 15-8.281 0-15-6.711-15-15v-100.562c-27.352 14.18-58.391 22.203-91.266 22.203-109.734 0-199.008-89.273-199.008-199.008 0-28.742 6.133-56.070 17.141-80.773h-404.953c-8.281 0-15-6.711-15-15 0-8.281 6.719-15 15-15h421.57c35.758-53.18 96.484-88.234 165.25-88.234 109.734 0 199.008 89.273 199.008 199.008 0 64.125-30.5 121.258-77.742 157.672zM824.992-15.398c-93.195 0-169.008 75.812-169.008 169.008s75.82 169.008 169.008 169.008 169.008-75.812 169.008-169.008c0-93.195-75.82-169.008-169.008-169.008zM824.992 300.945c-81.242 0-147.336-66.102-147.336-147.336 0-81.242 66.094-147.336 147.336-147.336s147.328 66.094 147.328 147.336c0 81.234-66.094 147.336-147.328 147.336zM838.422 37.070c0.992 2.008 1.57 4.258 1.57 6.648v18.273c0 8.281-6.719 15-15 15s-15-6.719-15-15v-18.273c0-2.391 0.57-4.641 1.57-6.648-53.984 6.18-96.93 49.125-103.109 103.109 2-1 4.258-1.57 6.648-1.57h18.266c8.289 0 15 6.711 15 15s-6.711 15-15 15h-18.266c-2.391 0-4.648-0.578-6.648-1.57 6.18 53.984 49.125 96.93 103.109 103.109-1-2.008-1.57-4.258-1.57-6.648v-18.273c0-8.289 6.719-15 15-15s15 6.711 15 15v18.273c0 2.391-0.578 4.641-1.57 6.648 53.984-6.18 96.93-49.125 103.109-103.109-2.008 0.992-4.258 1.57-6.648 1.57h-18.273c-8.281 0-15-6.711-15-15s6.719-15 15-15h18.273c2.391 0 4.641 0.57 6.648 1.57-6.187-53.984-49.125-96.93-103.109-103.109zM858.055 168.609h-18.062v15.383c0 8.281-6.719 15-15 15-8.289 0-15-6.719-15-15v-30.383c0-8.289 6.711-15 15-15h33.062c8.281 0 15 6.711 15 15s-6.719 15-15 15z" />
<glyph unicode="&#xe950;" glyph-name="whatsapp-logo" d="M1024 461.187c0-275.49-225.041-498.813-502.693-498.813-88.144 0-170.951 22.528-242.995 62.066l-278.312-88.439 90.738 267.628c-45.773 75.162-72.135 163.317-72.135 257.559 0 275.49 225.064 498.813 502.704 498.813 277.675 0 502.693-223.323 502.693-498.813zM521.307 880.56c-233.062 0-422.639-188.132-422.639-419.374 0-91.762 29.912-176.742 80.509-245.874l-52.804-155.75 162.418 51.621c66.731-43.816 146.671-69.37 232.528-69.37 233.028 0 422.639 188.109 422.639 419.351s-189.599 419.396-422.65 419.396zM775.157 346.305c-3.106 5.086-11.31 8.158-23.62 14.268-12.334 6.11-72.932 35.703-84.196 39.765-11.298 4.073-19.536 6.121-27.739-6.11-8.203-12.242-31.824-39.765-39.026-47.923-7.191-8.181-14.37-9.205-26.704-3.083-12.311 6.11-52.008 19.035-99.078 60.678-36.625 32.404-61.36 72.408-68.551 84.662-7.179 12.231-0.751 18.842 5.404 24.929 5.552 5.484 12.334 14.279 18.489 21.413 6.178 7.145 8.226 12.231 12.311 20.4 4.13 8.158 2.071 15.292-1.024 21.424-3.072 6.11-27.739 66.276-38.002 90.761-10.263 24.462-20.514 20.389-27.716 20.389-7.179 0-15.406 1.024-23.62 1.024s-21.572-3.061-32.87-15.292c-11.287-12.242-43.11-41.825-43.11-101.979 0-60.166 44.134-118.295 50.313-126.441 6.155-8.146 85.22-135.623 210.489-184.582 125.281-48.936 125.281-32.609 147.877-30.561 22.574 2.037 72.886 29.571 83.194 58.106 10.24 28.581 10.24 53.055 7.179 58.152z" />
<glyph unicode="&#xe951;" glyph-name="viber-1" d="M980.969 598.586c0.008 96.172-37.688 186.828-106.133 255.273s-159.102 106.141-255.281 106.141h-214.141c-0.008 0-0.008 0-0.008 0-96.164 0-186.828-37.695-255.266-106.133-68.445-68.453-106.141-159.109-106.141-255.281v-168.328c0-74.484 22.719-146.125 65.703-207.195 37.922-53.875 88.922-95.961 148.383-122.641v-96.688c0-49.992 27.992-67.734 51.961-67.734 17.125 0 34.25 8.453 50.922 25.117l107.719 107.719 150.875 0.008c96.172 0 186.828 37.695 255.273 106.133 68.445 68.445 106.141 159.109 106.141 255.281zM619.563 128.844l-163.297-0.008c-7.961 0-15.586-3.156-21.211-8.781l-116.508-116.508c-0.148-0.156-0.305-0.305-0.461-0.453 0 0.211 0 0.43 0 0.641v116.711c0 12.445-7.68 23.594-19.305 28.031-116.5 44.453-194.773 157.695-194.773 281.781v168.328c0 80.148 31.453 155.742 88.563 212.859 57.109 57.102 132.695 88.555 212.844 88.555h214.141c80.148 0 155.742-31.453 212.852-88.563 57.117-57.117 88.57-132.711 88.563-212.852l0.008-168.328c-0.008-166.203-135.219-301.414-301.414-301.414zM592.266 469.328c-11.711 11.719-30.703 11.719-42.422 0l-24.234-24.227-93.906 93.898 24.234 24.227c5.625 5.625 8.789 13.258 8.789 21.219 0 7.953-3.164 15.586-8.789 21.211l-113.609 113.609c-5.625 5.625-13.25 8.789-21.211 8.789-7.953 0-15.586-3.164-21.211-8.789l-79.531-79.531c-43.008-43.008-43.008-113 0.008-156.031l249.93-249.945c20.781-20.773 48.492-32.211 78.016-32.211 29.531 0 57.242 11.438 78.023 32.211l79.531 79.523c5.625 5.633 8.789 13.258 8.789 21.219 0 7.953-3.164 15.586-8.789 21.211zM583.922 276.195c-9.445-9.445-22.086-14.648-35.594-14.648s-26.148 5.203-35.594 14.648l-249.922 249.938c-19.625 19.625-19.633 51.563-0.008 71.18l58.313 58.32 71.18-71.188-24.234-24.227c-5.625-5.625-8.789-13.258-8.789-21.211 0-7.961 3.164-15.586 8.789-21.219l136.328-136.328c11.719-11.711 30.711-11.719 42.43 0l24.234 24.227 71.18-71.18zM519.766 827.289c-16.57 0-30-13.43-30-30 0-16.563 13.43-30 30-30 68.656 0 133.211-26.734 181.758-75.289 48.555-48.547 75.289-113.094 75.289-181.758 0-16.563 13.43-30 30-30 16.563 0 30 13.43 30 30 0 84.688-32.977 164.305-92.859 224.188s-139.5 92.859-224.188 92.859zM648.281 510.25c0-16.563 13.438-30 30-30 16.57 0 30 13.438 30 30 0 103.945-84.57 188.508-188.516 188.508-16.57 0-30-13.43-30-30s13.43-30 30-30c70.867 0 128.516-57.648 128.516-128.508z" />
<glyph unicode="&#xe952;" glyph-name="badge" d="M757.333 464.565c0.017 16.755-7.629 32.592-20.754 43.003 13.842 16.309 16.948 39.171 7.962 58.577-8.994 19.415-28.444 31.83-49.828 31.813h-122.010l5.040 13.334c7.936 20.894 11.987 43.056 11.969 65.402v1.986c-0.009 16.991-6.895 33.256-19.1 45.086-12.197 11.829-28.663 18.216-45.646 17.709-34.376-1.829-61.22-30.387-60.922-64.807 0-16.3-22.906-53.756-41.463-78.736h-137.602c-8.662 0-15.679-7.017-15.679-15.679v-313.832c0-8.662 7.017-15.679 15.679-15.679h385.183c19.809-0.009 38.086 10.657 47.824 27.902 9.729 17.254 9.423 38.41-0.822 55.366 15.749 7.052 27.263 21.112 31.078 37.946 3.823 16.834-0.507 34.481-11.672 47.64 13.115 10.403 20.762 26.231 20.762 42.968zM300.658 566.566h113.987v-282.466h-113.987zM702.422 441.012h-7.717c-8.662 0-15.679-7.017-15.679-15.679s7.017-15.679 15.679-15.679c13.002 0 23.545-10.543 23.545-23.553 0-13.002-10.543-23.545-23.545-23.545h-24.542c-8.662 0-15.679-7.026-15.679-15.679 0-8.662 7.017-15.679 15.679-15.679 13.002 0 23.545-10.543 23.545-23.553 0-13.002-10.543-23.545-23.545-23.545h-224.16v292.842c13.29 17.578 49.399 68.272 49.399 99.717-0.411 17.499 13.002 32.233 30.457 33.475 8.522 0.262 16.79-2.94 22.915-8.872 6.116-5.932 9.572-14.095 9.572-22.617v-1.986c0.017-18.549-3.351-36.949-9.931-54.29l-13.072-34.604c-1.82-4.821-1.164-10.219 1.767-14.463 2.922-4.235 7.743-6.763 12.897-6.772h144.698c13.002 0 23.545-10.543 23.545-23.545 0-13.010-10.543-23.553-23.545-23.553-8.662 0-15.679-7.017-15.679-15.679s7.017-15.679 15.679-15.679h7.717c13.010 0 23.553-10.543 23.553-23.553s-10.543-23.553-23.553-23.553zM346.855 375.015c-22.538 0-40.798-18.269-40.798-40.798 0-22.538 18.26-40.798 40.798-40.798 22.53 0 40.798 18.26 40.798 40.798-0.026 22.521-18.277 40.772-40.798 40.798zM346.855 324.785c-5.215 0-9.449 4.226-9.441 9.441 0 5.215 4.226 9.449 9.441 9.441 5.223 0 9.449-4.235 9.441-9.449s-4.235-9.432-9.441-9.432zM999.271 485.328c14.48 22.74 19.249 50.327 13.247 76.61-5.993 26.274-22.258 49.067-45.164 63.276-22.888 14.279-35.505 40.466-32.399 67.265 3.176 26.764-4.497 53.695-21.305 74.764-16.808 21.077-41.35 34.551-68.149 37.421-26.817 2.922-49.539 21.025-58.376 46.512-8.758 25.496-27.351 46.424-51.639 58.122-24.288 11.689-52.251 13.185-77.642 4.13-25.434-8.986-53.774-2.52-72.786 16.615-18.951 19.17-44.788 29.958-71.745 29.958s-52.794-10.788-71.745-29.958c-19.012-19.144-47.36-25.609-72.786-16.615-25.399 9.047-53.345 7.551-77.633-4.138-24.28-11.698-42.881-32.626-51.639-58.113-8.819-25.496-31.55-43.616-58.367-46.538-26.808-2.87-51.35-16.344-68.149-37.421-16.808-21.077-24.481-47.999-21.314-74.772 3.115-26.791-9.502-52.978-32.382-67.257-22.906-14.209-39.171-36.992-45.164-63.267-6.002-26.274-1.234-53.853 13.229-76.592 14.428-22.792 14.428-51.858 0-74.65-14.472-22.748-19.24-50.335-13.247-76.61 6.002-26.283 22.267-49.075 45.164-63.284 22.897-14.279 35.505-40.466 32.399-67.257-3.167-26.773 4.506-53.695 21.314-74.772 16.799-21.077 41.341-34.551 68.149-37.421 26.808-2.914 49.539-21.025 58.367-46.503 8.758-25.496 27.359-46.424 51.648-58.122s52.243-13.185 77.642-4.138c25.426 9.003 53.774 2.537 72.786-16.615 18.951-19.17 44.788-29.958 71.745-29.958s52.794 10.788 71.745 29.958c19.012 19.144 47.352 25.609 72.786 16.615 25.391-9.047 53.345-7.551 77.625 4.147 24.288 11.689 42.881 32.618 51.639 58.113 8.828 25.487 31.559 43.607 58.376 46.529 26.799 2.87 51.341 16.344 68.149 37.421s24.481 47.999 21.305 74.772c-3.106 26.791 9.502 52.978 32.39 67.257 22.906 14.209 39.171 37.001 45.173 63.276 6.002 26.283 1.234 53.87-13.247 76.618-14.41 22.783-14.41 51.831 0 74.624zM972.822 393.844c9.974-15.679 13.264-34.691 9.126-52.803-4.13-18.111-15.346-33.816-31.13-43.616-33.213-20.719-51.516-58.717-47.002-97.6 2.187-18.452-3.106-37.010-14.69-51.534s-28.497-23.807-46.967-25.784c-38.917-4.252-71.894-30.544-84.694-67.537-6.037-17.569-18.855-31.997-35.593-40.055s-36.004-9.091-53.503-2.852c-36.905 13.063-78.027 3.675-105.614-24.105-13.054-13.212-30.859-20.649-49.443-20.649-18.575 0-36.38 7.437-49.443 20.649-27.569 27.797-68.709 37.185-105.614 24.105-17.499-6.238-36.765-5.206-53.503 2.852s-29.555 22.486-35.584 40.055c-12.8 36.992-45.786 63.284-84.694 67.537-18.479 1.977-35.391 11.26-46.976 25.784s-16.869 33.081-14.681 51.534c4.515 38.882-13.78 76.89-47.002 97.6-15.793 9.799-27.001 25.504-31.139 43.616-4.13 18.111-0.84 37.124 9.134 52.803 20.937 33.064 20.937 75.245 0 108.318-9.974 15.67-13.264 34.683-9.134 52.803 4.138 18.111 15.346 33.816 31.139 43.607 33.213 20.719 51.516 58.717 47.011 97.6-2.187 18.452 3.097 37.010 14.681 51.534 11.584 14.533 28.497 23.816 46.976 25.793 38.909 4.243 71.894 30.544 84.694 67.537 6.028 17.569 18.846 31.988 35.584 40.055 16.738 8.058 36.004 9.082 53.503 2.844 36.905-13.054 78.036-3.675 105.614 24.105 13.063 13.212 30.868 20.649 49.443 20.649 18.584 0 36.389-7.437 49.443-20.649 27.587-27.779 68.709-37.159 105.614-24.105 17.499 6.238 36.765 5.215 53.503-2.844 16.738-8.067 29.555-22.486 35.593-40.055 12.8-36.992 45.777-63.293 84.694-67.537 18.47-1.977 35.383-11.26 46.967-25.793 11.584-14.524 16.878-33.081 14.69-51.534-4.523-38.882 13.78-76.89 47.002-97.6 15.784-9.791 27.001-25.496 31.13-43.607 4.138-18.12 0.849-37.132-9.126-52.803-20.946-33.073-20.946-75.245-0.009-108.318zM513.321 829.407c-210.65 0-381.404-170.771-381.404-381.412s170.771-381.404 381.412-381.404c210.65 0 381.404 170.762 381.404 381.412-0.236 210.545-170.867 381.167-381.412 381.404zM513.321 97.939c-193.327 0.009-350.046 156.728-350.046 350.055s156.719 350.046 350.046 350.046c193.327 0.009 350.055-156.71 350.055-350.037-0.219-193.239-156.815-349.836-350.055-350.055z" />
<glyph unicode="&#xe953;" glyph-name="hours-1" d="M923.006-24h-410.838c-260.262 0-472 211.738-472 472s211.738 472 472 472c102.438 0 200.926-32.954 282.106-93.578h-21.95c-11.044 0-20-8.956-20-20s8.956-20 20-20h75.948c11.044 0 20 8.956 20 20v75.948c0 11.044-8.956 20-20 20s-20-8.956-20-20v-31.61c-89.926 70.692-200.708 109.24-316.104 109.24-136.76 0-265.334-53.258-362.040-149.96-96.702-96.706-149.96-225.28-149.96-362.040s53.258-265.334 149.96-362.040c96.706-96.704 225.28-149.96 362.040-149.96h410.838c11.044 0 20 8.956 20 20s-8.956 20-20 20zM216.556 657.58c-9.342 5.89-21.694 3.088-27.584-6.256-45.404-72.036-65.444-158.602-56.422-243.756 9.154-86.43 48.106-167.938 109.676-229.51 74.424-74.422 172.182-111.632 269.942-111.632s195.518 37.21 269.942 111.632c148.844 148.846 148.844 391.038 0 539.882-61.668 61.666-143.308 100.63-229.88 109.714-85.308 8.958-171.976-11.248-244.040-56.876-9.332-5.91-12.108-18.266-6.2-27.598 5.91-9.332 18.266-12.106 27.598-6.2 133.72 84.67 312.142 64.766 424.236-47.328 133.248-133.25 133.248-350.062 0-483.312-66.632-66.632-154.128-99.946-241.656-99.938-87.506 0.010-175.040 33.32-241.656 99.938-113.666 113.666-133.28 287.878-47.7 423.652 5.89 9.348 3.090 21.698-6.256 27.588zM298.748 539.952c-31.924 0-57.894-25.97-57.894-57.894 0-11.044 8.956-20 20-20s20 8.956 20 20c0 9.868 8.028 17.894 17.894 17.894 15.77 0 17.896-9.044 17.896-17.894 0-28.924-41.496-70.322-67.638-89.612-6.962-5.122-9.85-14.134-7.156-22.348 2.696-8.212 10.362-13.766 19.004-13.766h75.792c11.044 0 20 8.956 20 20s-8.956 20-20 20h-23.562c21.576 22.99 43.562 54.16 43.562 85.724-0.002 34.63-23.27 57.896-57.898 57.896zM398.784 539.952c-11.044 0-20-8.956-20-20v-71.872c0-11.044 8.956-20 20-20h48.982v-52.032c0-11.044 8.956-20 20-20s20 8.956 20 20v143.902c0 11.044-8.956 20-20 20s-20-8.956-20-20v-51.872h-28.982v51.872c0 11.046-8.956 20.002-20 20.002zM550.306 356.328c7.596 0 14.858 4.35 18.212 11.712l65.422 143.62c4.578 10.052 0.14 21.912-9.91 26.492-10.056 4.58-21.91 0.142-26.492-9.91l-65.422-143.62c-4.578-10.052-0.14-21.912 9.91-26.492 2.69-1.224 5.508-1.802 8.28-1.802zM714.65 357.176c1.916-0.576 3.852-0.85 5.754-0.85 8.604 0 16.548 5.596 19.148 14.26l43.086 143.62c1.816 6.054 0.664 12.614-3.112 17.686-3.774 5.072-9.722 8.060-16.044 8.060h-86.172c-11.044 0-20-8.956-20-20s8.956-20 20-20h59.292l-35.362-117.874c-3.174-10.578 2.83-21.728 13.41-24.902zM256.378 723.8c-5.28 0-10.44-2.14-14.16-5.862-3.718-3.718-5.86-8.878-5.86-14.138s2.14-10.42 5.86-14.14c3.72-3.72 8.88-5.86 14.16-5.86 5.26 0 10.42 2.138 14.14 5.86s5.84 8.88 5.84 14.14-2.12 10.42-5.84 14.138c-3.72 3.722-8.88 5.862-14.14 5.862zM1003.832-24h-0.27c-11.044 0-20-8.956-20-20s8.956-20 20-20h0.27c11.044 0 20 8.956 20 20s-8.956 20-20 20z" />
<glyph unicode="&#xe954;" glyph-name="car" d="M512 960c-282.769 0-512-229.231-512-512s229.231-512 512-512 512 229.231 512 512c-0.32 282.637-229.363 511.68-512 512zM512-29.867c-263.919 0-477.867 213.948-477.867 477.867s213.948 477.867 477.867 477.867 477.867-213.948 477.867-477.867c-0.301-263.793-214.074-477.566-477.867-477.867zM512 891.733c-245.067 0-443.733-198.667-443.733-443.733s198.667-443.733 443.733-443.733 443.733 198.667 443.733 443.733c-0.273 244.954-198.78 443.46-443.733 443.733zM512 38.4c-226.217 0-409.6 183.383-409.6 409.6s183.383 409.6 409.6 409.6 409.6-183.383 409.6-409.6c-0.262-226.106-183.494-409.338-409.6-409.6zM119.467 465.067h68.267v-34.133h-68.267v34.133zM836.267 465.067h68.267v-34.133h-68.267v34.133zM163.5 266.483l59.126 34.127 17.063-29.563-59.126-34.127-17.063 29.563zM784.303 624.918l59.126 34.127 17.063-29.563-59.126-34.127-17.063 29.563zM163.517 629.49l17.063 29.563 59.126-34.127-17.063-29.563-59.126 34.127zM784.315 271.166l17.063 29.563 59.126-34.127-17.063-29.563-59.126 34.127zM300.89 779.414l29.563 17.063 34.127-59.126-29.563-17.063-34.127 59.126zM494.933 840.533h34.133v-68.267h-34.133v68.267zM659.34 737.378l34.127 59.126 29.563-17.063-34.127-59.126-29.563 17.063zM128.413 533.126l8.834 32.969 49.454-13.251-8.834-32.969-49.454 13.251zM837.169 343.205l8.834 32.969 49.454-13.251-8.834-32.969-49.454 13.251zM222.373 713.499l24.136 24.136 36.204-36.204-24.136-24.136-36.204 36.204zM393.843 822.723l32.969 8.834 13.251-49.454-32.969-8.834-13.251 49.454zM583.827 782.016l13.251 49.454 32.969-8.834-13.251-49.454-32.969 8.834zM741.288 701.382l36.204 36.204 24.136-24.136-36.204-36.204-24.136 24.136zM837.368 552.841l49.454 13.251 8.834-32.969-49.454-13.251-8.834 32.969zM128.414 362.898l49.454 13.251 8.834-32.969-49.454-13.251-8.834 32.969zM584.412 728.817c-155.172 39.968-313.363-53.421-353.333-208.591-18.935-73.515-8.305-151.524 29.615-217.291 4.958-8.015 15.477-10.494 23.492-5.534 7.676 4.749 10.327 14.654 6.050 22.601-70.609 122.492-28.548 279.029 93.943 349.638s279.029 28.548 349.638-93.943c33.453-58.033 42.827-126.865 26.112-191.729-2.357-9.133 3.138-18.447 12.271-20.804s18.447 3.138 20.804 12.271v0.051c39.968 155.17-53.423 313.361-208.593 353.331zM761.737 324.676l-187.733 153.6c-0.512 0.314-1.043 0.599-1.587 0.853-17.133 33.47-58.153 46.714-91.62 29.581-33.47-17.133-46.714-58.153-29.581-91.62 11.006-21.5 32.578-35.558 56.689-36.947l237.227-84.736c1.86-0.674 3.825-1.015 5.803-1.007 9.425 0.002 17.065 7.644 17.065 17.071-0.002 5.118-2.3 9.965-6.261 13.205zM512 413.867c-18.852 0-34.133 15.281-34.133 34.133s15.281 34.133 34.133 34.133 34.133-15.281 34.133-34.133-15.281-34.133-34.133-34.133zM558.507 398.302c9.436 8.838 16.151 20.19 19.354 32.717l86.033-70.298-105.387 37.581zM580.267 277.333h-136.533c-47.127 0-85.333-38.206-85.333-85.333s38.206-85.333 85.333-85.333h136.533c47.127 0 85.333 38.206 85.333 85.333s-38.206 85.333-85.333 85.333zM580.267 140.8h-136.533c-28.277 0-51.2 22.923-51.2 51.2s22.923 51.2 51.2 51.2h136.533c28.277 0 51.2-22.923 51.2-51.2s-22.923-51.2-51.2-51.2zM477.867 209.067h-34.133c-9.425 0-17.067-7.642-17.067-17.067s7.642-17.067 17.067-17.067h34.133c9.425 0 17.067 7.642 17.067 17.067s-7.642 17.067-17.067 17.067zM580.267 209.067h-34.133c-9.425 0-17.067-7.642-17.067-17.067s7.642-17.067 17.067-17.067h34.133c9.425 0 17.067 7.642 17.067 17.067s-7.642 17.067-17.067 17.067z" />
<glyph unicode="&#xe955;" glyph-name="price-tag" d="M1024 758.718l-201.754 201.282h-254.194l-100.178-99.852c-249.093 20.783-449.94-119.346-452.753-121.361-8.15-5.808-10.056-17.153-4.211-25.321 3.54-4.937 9.112-7.587 14.775-7.587 3.648 0 7.333 1.107 10.528 3.394 2.523 1.797 176.288 122.995 397.173 116.515l-433.386-432.351 456.438-457.437 182.241 181.751c37.428-19.604 80.974-29.242 124.048-29.224 63.548 0 125.881 20.656 165.197 59.973 133.722 133.74 80.647 280.441 62.496 320.066l33.562 33.49v256.663zM807.253 923.697l180.444-180.045v-226.531l-354.644-353.483c-74.131 53.148-96.693 152.872-63.403 283.636 2.487 9.711-3.394 19.604-13.105 22.072-9.747 2.596-19.585-3.394-22.072-13.105-46.994-184.547 16.155-275.558 72.588-318.505l-41.621-41.494-405.051 405.904 320.919 320.084c76.2-8.713 156.666-33.871 236.805-84.713-0.708-4.011-1.234-8.096-1.234-12.307 0-39.389 32.037-71.426 71.426-71.426s71.444 32.037 71.444 71.426-32.056 71.426-71.444 71.426c-22.072 0-41.585-10.274-54.691-26.066-74.222 46.413-148.607 72.279-219.96 83.896l69.393 69.23h224.208zM758.988 709.509c8.023-6.026 19.404-4.411 25.394 3.63 6.026 8.005 4.393 19.386-3.63 25.394-5.609 4.193-11.236 7.896-16.845 11.835 6.335 6.153 14.921 9.965 24.396 9.965 19.368 0 35.141-15.756 35.141-35.141 0-19.35-15.756-35.123-35.141-35.123-14.576 0-27.082 8.931-32.4 21.6 1.035-0.744 2.069-1.38 3.086-2.16zM51.333 393.364l83.352 83.134 405.178-406.050-83.352-83.134-405.178 406.050zM902.258 174.166c-46.758-46.722-151.928-68.032-236.514-29.424l297.231 296.451c18.061-44.943 47.285-159.007-60.717-267.027z" />
<glyph unicode="&#xe956;" glyph-name="language" d="M672 816h96v-64h-64v-32h64v-64h-96v-32h224v32h-96v64h64v32h-64v64h96v32h-224zM820.581 692.619l22.624 22.624 31.99-31.99-22.624-22.624zM928 912h-288c-27.392 0-51.568-13.872-66-34.928-59.696 43.136-132 66.928-206 66.928-194.096 0-352-157.904-352-352 0-137.872 80.8-262.16 204.064-319.296-45.904-31.808-76.064-84.768-76.064-144.704v-176h368v205.264c0 7.808 3.040 15.152 8.576 20.688l245.488 245.488c11.568 11.568 17.936 26.944 17.936 43.296 0 33.792-27.472 61.264-61.264 61.264-3.008 0-5.936-0.448-8.848-0.864 2.032 10.864 3.568 21.824 4.56 32.864h81.552v-77.904l116.848 77.904h11.152c44.112 0 80 35.888 80 80v192c0 44.112-35.888 80-80 80zM543.648 608c-1.568 47.904-10.096 90.528-22.544 128h38.896v-96c0-11.392 2.464-22.176 6.784-32zM383.664 132.352l-15.664-23.504-15.664 23.52 9.296 139.632h12.704zM368 304c-52.944 0-96 43.056-96 96s43.056 96 96 96 96-43.056 96-96-43.056-96-96-96zM494.896 416h90.48l-47.888-47.888c-19.232-19.232-42.256-34.432-67.296-44.864 16.128 21.424 25.808 47.936 25.808 76.752 0 5.424-0.448 10.752-1.104 16zM486.576 448c-19.040 46.848-64.976 80-118.576 80s-99.536-33.152-118.576-80h-0.368c-14.784 40.608-23.088 83.536-24.688 128h286.912c-1.6-44.464-9.808-87.392-24.592-128zM48.624 576h143.728c1.488-44.24 9.088-87.136 22.752-128h-132.784c-19.76 39.152-31.408 82.64-33.696 128zM48.816 608c2.288 45.872 14.144 89.168 33.808 128h132.256c-12.448-37.472-20.96-80.096-22.544-128zM224.704 608c1.776 48.24 11.056 91.024 24.624 128h237.328c13.568-36.976 22.848-79.76 24.624-128zM368 907.6c20.176-16.832 69.84-63.6 105.296-139.6h-210.592c35.456 76 85.12 122.768 105.296 139.6zM560 832v-64h-50.912c-27.552 65.344-65.872 111.984-94.192 140.288 53.12-7.904 103.68-29.12 146.576-61.728-0.88-4.736-1.472-9.568-1.472-14.56zM320.96 908.144c-28.304-28.32-66.528-74.912-94.048-140.144h-125.888c49.088 74.192 128.24 126.544 219.936 140.144zM101.088 416h140.032c-0.672-5.248-1.12-10.576-1.12-16 0-39.968 18.432-75.68 47.216-99.184-10.528-2-20.704-4.992-30.48-8.784-65.152 24.192-118.96 68.304-155.648 123.968zM752 466.736c0-7.808-3.040-15.152-8.576-20.688l-245.472-245.472c-11.584-11.584-17.952-26.96-17.952-43.312v-173.264h-224v192h-32v-192h-48v144c0 79.392 64.608 144 144 144h9.568l-9.888-148.352 48.32-72.496 48.336 72.496-10.128 151.44 18.16 2.528c51.072 7.296 99.28 31.408 135.76 67.888l141.952 141.952c5.504 5.504 12.848 8.544 20.656 8.544 16.144 0 29.264-13.12 29.264-29.264zM676.544 507.168l-59.168-59.168h-96.464c13.664 40.848 21.248 83.744 22.72 128h48.848c13.328-9.92 29.664-16 47.504-16h46.368c-1.76-17.888-5.072-35.568-9.808-52.832zM976 640c0-26.464-21.536-48-48-48h-20.848l-75.152-50.096v50.096h-192c-26.464 0-48 21.536-48 48v192c0 26.464 21.536 48 48 48h288c26.464 0 48-21.536 48-48zM928 240h-11.152l-116.848 77.904v-77.904h-128c-44.112 0-80-35.888-80-80v-128c0-44.112 35.888-80 80-80h256c44.112 0 80 35.888 80 80v128c0 44.112-35.888 80-80 80zM976 32c0-26.464-21.536-48-48-48h-256c-26.464 0-48 21.536-48 48v128c0 26.464 21.536 48 48 48h160v50.096l75.152-50.096h20.848c26.464 0 48-21.536 48-48zM288 672h32v-32h-32zM352 672h32v-32h-32zM416 672h32v-32h-32zM823.76 112h56.24v32h-63.44c-0.224 2.816-0.56 5.616-0.56 8.464v23.536h-32v-23.536c0-2.848-0.336-5.648-0.56-8.464h-63.44v-32h56.24c-8.912-22.848-25.104-42.656-46.624-55.568l-17.856-10.704 16.464-27.44 17.856 10.704c14.752 8.848 27.408 20.352 37.92 33.472v-46.464h32v46.464c10.512-13.12 23.168-24.624 37.92-33.472l17.856-10.704 16.464 27.44-17.856 10.704c-21.52 12.912-37.712 32.72-46.624 55.568z" />
<glyph unicode="&#xe957;" glyph-name="travel" d="M255.917 448.177c65.555 0.006 131.132 24.961 181.039 74.868 76.196 76.194 96.526 192.843 50.591 290.265-4.711 9.993-16.63 14.272-26.623 9.561-9.991-4.711-14.274-16.63-9.561-26.623 38.758-82.201 21.6-180.625-42.697-244.916-84.227-84.227-221.274-84.227-305.501 0s-84.227 221.274 0 305.501c63.871 63.875 161.811 81.257 243.716 43.257 10.027-4.65 21.916-0.292 26.563 9.725 4.648 10.021 0.294 21.914-9.725 26.563-97.074 45.037-213.147 24.439-288.841-51.256-99.825-99.825-99.825-262.252 0-362.079 49.919-49.917 115.466-74.874 181.037-74.866zM409.058 683.888h14.53c11.045 0 20.002 8.957 20.002 20.002s-8.957 20.002-20.002 20.002h-14.53c-11.045 0-20.002-8.957-20.002-20.002s8.955-20.002 20.002-20.002zM88.249 724.277c-11.045 0-20.002-8.957-20.002-20.002s8.957-20.002 20.002-20.002h14.53c11.045 0 20.002 8.957 20.002 20.002s-8.957 20.002-20.002 20.002h-14.53zM235.725 550.942v-14.53c0-11.045 8.957-20.002 20.002-20.002s20.002 8.957 20.002 20.002v14.53c0 11.045-8.957 20.002-20.002 20.002s-20.002-8.955-20.002-20.002zM276.112 856.535c0.014 11.047-8.931 20.014-19.976 20.028-0.010 0-0.018 0-0.026 0-11.037 0-19.988-8.939-20.002-19.976l-0.18-142.403-57.838-42.751c-8.883-6.567-10.761-19.092-4.196-27.975 3.922-5.307 9.971-8.115 16.102-8.115 4.13 0 8.297 1.276 11.875 3.918l65.939 48.737c5.095 3.766 8.105 9.723 8.113 16.060l0.19 152.476zM422.815 850.978c5.261 0 10.421 2.138 14.142 5.861s5.861 8.881 5.861 14.142-2.138 10.421-5.861 14.14c-3.72 3.72-8.881 5.863-14.142 5.863s-10.421-2.14-14.14-5.863c-3.72-3.718-5.863-8.879-5.863-14.14s2.14-10.421 5.863-14.142c3.718-3.72 8.879-5.861 14.14-5.861zM838.352 272.034l-55.862 72.356c-43.103 55.828-110.944 89.158-181.477 89.158h-203.886c-92.048 0-174.565-54.836-210.227-139.701l-10.689-25.443c-0.524-0.384-1.034-0.79-1.52-1.226l-51.392-45.981h-103.297c-11.045 0-20.002-8.957-20.002-20.002s8.957-20.002 20.002-20.002h89.074v-59.416h-35.124c-11.045 0-20.002-8.957-20.002-20.002s8.957-20.002 20.002-20.002h35.124v-52.882c0-11.045 8.957-20.002 20.002-20.002h67.535c9.175-41.632 46.343-72.886 90.694-72.886s81.519 31.253 90.696 72.886h234.285c11.045 0 20.002 8.957 20.002 20.002s-8.957 20.002-20.002 20.002h-102.611v183.38h319.024c9.117 0 18.038-0.834 26.727-2.35v-35.878c0-32.189 26.187-58.376 58.376-58.376h58.636c7.425-18.12 11.551-37.928 11.551-58.69v-28.087h-47.533c-9.175 41.632-46.343 72.884-90.694 72.884-51.218 0-92.888-41.668-92.888-92.886s41.67-92.888 92.888-92.888c44.351 0 81.519 31.253 90.694 72.886h67.535c11.045 0 20.002 8.957 20.002 20.002v48.089c0.004 104.453-82.421 190.010-185.644 195.057zM845.769-23.996c-29.161 0-52.884 23.723-52.884 52.884 0 29.159 23.723 52.882 52.884 52.882 29.159 0 52.882-23.723 52.882-52.882 0-29.161-23.723-52.884-52.882-52.884zM397.127 393.543h72.55v-121.269h-248.447l2.552 6.077c29.405 69.978 97.446 115.192 173.345 115.192zM189.872 227.083v-41.056c0-14.032-11.413-25.445-25.445-25.445h-15.348v30.003l40.792 36.498zM287.309-23.996c-29.159 0-52.882 23.723-52.882 52.884 0 29.159 23.723 52.882 52.882 52.882 29.161 0 52.884-23.723 52.884-52.882 0-29.161-23.723-52.884-52.884-52.884zM469.676 48.89h-91.672c-9.177 41.632-46.345 72.884-90.696 72.884s-81.519-31.251-90.694-72.884h-47.535v71.688h15.348c36.088 0 65.449 29.361 65.449 65.449v46.243h239.8v-183.38zM509.681 393.543h91.334c58.224 0 114.23-27.515 149.812-73.602l36.802-47.667h-277.948v121.269zM913.806 175.672c-10.129 0-18.372 8.241-18.372 18.372v23.132c20.592-9.841 38.698-24.079 53.078-41.502h-34.706zM553.359 197.814c-11.045 0-20.002-8.957-20.002-20.002s8.957-20.002 20.002-20.002h33.612c11.045 0 20.002 8.957 20.002 20.002s-8.957 20.002-20.002 20.002h-33.612zM692.304 48.892c-5.283 0-10.421-2.14-14.162-5.863-3.72-3.718-5.841-8.879-5.841-14.14s2.12-10.421 5.841-14.142c3.74-3.72 8.879-5.861 14.162-5.861 5.261 0 10.421 2.138 14.142 5.861 3.718 3.72 5.861 8.881 5.861 14.142s-2.14 10.421-5.861 14.14c-3.72 3.722-8.881 5.863-14.142 5.863z" />
<glyph unicode="&#xe958;" glyph-name="chauffeur" d="M379.869 662.71h-22.395c33.758 27.269 55.429 68.939 55.429 115.613v58.733c19.654 11.462 33.031 32.536 33.031 56.883 0.003 36.43-29.624 66.061-66.065 66.061h-231.225c-36.43 0-66.058-29.631-66.058-66.065 0-24.344 13.377-45.418 33.031-56.883v-58.73c0-46.674 21.668-88.344 55.429-115.613h-22.395c-81.954 0-148.647-66.689-148.647-148.643v-165.16c0-54.651 44.445-99.096 99.096-99.096v-313.807h330.321v313.804c54.651 0 99.096 44.445 99.096 99.096v165.16c0 81.957-66.693 148.647-148.647 148.647zM115.616 893.939c0 18.217 14.814 33.031 33.031 33.031h231.225c18.217 0 33.031-14.814 33.031-33.031s-14.814-33.031-33.031-33.031h-231.229c-18.213 0-33.027 14.814-33.027 33.031zM371.513 827.87c-12.667-20.118-34.915-33.031-59.74-33.031h-95.034c-24.825 0-47.070 12.916-59.74 33.031h214.514zM148.643 778.323v9.332c18.398-16.104 42.216-25.849 68.096-25.849h95.034c25.88 0 49.698 9.745 68.096 25.849v-9.332c0-63.751-51.862-115.613-115.613-115.613s-115.613 51.862-115.613 115.613zM338.96 629.679l-16.398-41.028-15.855 10.571 30.454 30.457h1.799zM273.94 613.162h-19.357l-16.517 16.517h52.391l-16.517-16.517zM280.196 404.714l-15.937-15.937-15.937 15.937 14.616 175.417h2.642l14.616-175.417zM221.825 599.208l-15.855-10.571-16.418 41.042h1.802l30.471-30.471zM99.102 282.841c-24.347 0-45.421 13.377-56.883 33.031h56.883v-33.031zM247.742-30.966h-115.609v33.031h115.613v-33.031zM396.389-30.966h-115.616v33.031h115.613v-33.031zM396.389 35.099h-115.616v181.677h-33.031v-181.677h-115.609v247.742h264.256v-247.742zM429.42 282.841v33.031h56.883c-11.462-19.654-32.536-33.031-56.883-33.031zM495.485 348.906h-66.065v198.195h-33.031v-231.225h-264.256v231.225h-33.031v-198.195h-66.068v165.16c0 63.751 51.862 115.613 115.613 115.613h5.335l36.451-91.102 38.021 25.351-14.319-171.734 50.125-50.128 50.125 50.125-14.319 171.734 38.021-25.351 36.451 91.102h5.335c63.751 0 115.613-51.862 115.613-115.613v-165.157zM844.353 960c-37.97 0-70.905-25.733-80.121-62.546l-42.165-168.68h-28.392v49.548h-99.096c-36.434 0-66.065-29.631-66.065-66.065s29.631-66.065 66.065-66.065h78.684l25.037-12.52-2.082-8.325c-80.715-32.488-134.673-111.779-134.673-199.085v-266.785c0-39.39 28.044-72.752 66.065-80.565v-93.365c0-27.317 22.231-49.548 49.548-49.548h132.13c27.317 0 49.548 22.231 49.548 49.548v82.585h165.16v891.867h-179.643zM660.645 679.227h-66.065c-18.217 0-33.031 14.814-33.031 33.031s14.814 33.031 33.031 33.031h66.065v-66.061zM693.679 672.919v22.825h20.132l-7.318-29.235-12.814 6.41zM693.676-30.966h-16.517c-9.097 0-16.514 7.417-16.514 16.517v89.071c10.984-1.123 21.999-2.082 33.031-2.908v-102.68zM809.288-30.966h-16.517v16.517h-33.031v-16.517h-33.031v100.649c11.015-0.529 22.016-0.925 33.031-1.157v-49.944h33.031v49.551h33.031v-82.582h0.003c0-9.1-7.417-16.517-16.517-16.517zM990.966 167.229h-264.256c-18.217 0-33.031 14.814-33.031 33.031s14.814 33.031 33.031 33.031h264.256v-66.061zM990.966 266.324h-264.256c-36.434 0-66.065-29.631-66.065-66.065s29.631-66.065 66.065-66.065h264.256v-33.031h-205.956c-49.002 0-98.468 3.089-147.025 9.151-24.74 3.089-43.404 24.228-43.404 49.169v266.785c0 75.315 47.384 143.674 117.893 170.117l0.727 0.263h277.766v-330.324zM990.966 629.679h-259.617l64.942 259.764c5.516 22.081 25.286 37.526 48.063 37.526h146.612v-297.29zM644.131 448.002c0-54.651 44.445-99.096 99.096-99.096s99.096 44.445 99.096 99.096-44.445 99.096-99.096 99.096-99.096-44.445-99.096-99.096zM743.227 514.067c36.434 0 66.065-29.631 66.065-66.065s-29.631-66.065-66.065-66.065-66.065 29.631-66.065 66.065 29.628 66.065 66.065 66.065z" />
<glyph unicode="&#xe959;" glyph-name="hours" d="M1006.933 38.4h-51.2v324.267c-0.006 9.425-7.654 17.060-17.079 17.054-5.562-0.004-10.773-2.718-13.965-7.275l-238.933-341.333c-5.402-7.725-3.518-18.366 4.207-23.765 2.865-2.003 6.274-3.078 9.771-3.081h221.867v-51.2c0-9.425 7.642-17.067 17.067-17.067s17.067 7.642 17.067 17.067v51.2h51.2c9.425 0 17.067 7.642 17.067 17.067s-7.642 17.067-17.067 17.067zM921.6 38.4h-189.099l189.099 270.131v-270.131zM699.733-29.867h-202.052l187.853 221.201c0.427 0.508 0.826 1.037 1.195 1.587 35.341 52.305 23.569 123.121-26.795 161.178-61.237 44-146.549 30.025-190.547-31.213-16.685-23.221-25.658-51.093-25.653-79.686 0-9.425 7.642-17.067 17.067-17.067s17.067 7.642 17.067 17.067c-0.006 56.555 45.837 102.404 102.389 102.411 21.436 0.002 42.332-6.722 59.744-19.228 35.279-27.031 43.494-76.815 18.773-113.749l-210.978-248.525c-6.099-7.187-5.216-17.956 1.971-24.055 3.083-2.615 6.991-4.051 11.034-4.053h238.933c9.425 0 17.067 7.642 17.067 17.067s-7.642 17.067-17.067 17.067zM461.175 55.142c0.356 9.419-6.993 17.342-16.412 17.698-0.002 0-0.004 0-0.006 0-222.656 8.265-401.363 186.652-410.027 409.293h67.669c9.425 0 17.067 7.642 17.067 17.067s-7.642 17.067-17.067 17.067h-67.669c8.54 222.249 186.752 400.454 409.003 408.986v-50.586c0-9.425 7.642-17.067 17.067-17.067s17.067 7.642 17.067 17.067v50.586c219.209-8.478 396.13-182.059 408.781-401.067l-66.56 66.56c-6.78 6.549-17.583 6.362-24.132-0.418-6.387-6.613-6.387-17.099 0-23.714l95.266-95.266c1.794-2.172 4.107-3.855 6.724-4.898 0.668-0.201 1.346-0.367 2.031-0.495 1.171-0.422 2.383-0.715 3.618-0.87 0.171 0 0.324 0 0.495 0s0.324 0 0.478 0c1.299 0.098 2.583 0.35 3.823 0.751 0.702 0.085 1.397 0.215 2.082 0.393 2.31 0.821 4.414 2.138 6.161 3.857l96.563 96.529c6.547 6.78 6.362 17.583-0.418 24.132-6.613 6.387-17.099 6.387-23.714 0l-68.215-68.164c-12.192 244.629-213.905 436.819-458.837 437.18-0.427 0.017-0.785 0.239-1.212 0.239s-0.785-0.222-1.212-0.239c-253.547-0.348-459.002-205.803-459.349-459.349 0-0.427-0.239-0.785-0.239-1.212s0.222-0.785 0.239-1.212c0.425-247.29 196.137-450.069 443.255-459.264h0.631c9.171 0.002 16.702 7.253 17.050 16.418zM690.091 728.491c-6.665 6.662-17.468 6.662-24.132 0l-183.398-183.381c-13.856 6.178-29.683 6.178-43.537 0l-86.835 86.835c-6.78 6.547-17.585 6.359-24.132-0.42-6.387-6.613-6.387-17.099 0-23.712l86.665-86.665c-12.169-25.472-1.382-55.987 24.092-68.154 19.552-9.34 42.869-5.335 58.187 9.99 15.401 15.27 19.366 38.652 9.865 58.146l183.228 183.228c6.662 6.665 6.662 17.468 0 24.132zM472.87 487.138c-0.002-0.002-0.002-0.002-0.004-0.004-6.75-6.453-17.382-6.453-24.132 0-6.667 6.665-6.667 17.47-0.004 24.137 6.665 6.667 17.47 6.667 24.137 0.004 6.667-6.665 6.667-17.472 0.004-24.137z" />
<glyph unicode="&#xe95a;" glyph-name="tap" d="M149.673 495.274c-7.912-21.103-1.734-44.908 15.456-59.49 32.568-32.592 99.548-150.243 132.702-233.148 22.626-56.545 72.306-112.044 109.998-148.658 16.222-15.964 25.328-37.785 25.281-60.552v-6.24c0-28.273 22.915-51.188 51.188-51.188h272.979c28.273 0 51.188 22.915 51.188 51.188v52.414c-0.156 4.335 1.492 8.544 4.553 11.614 62.973 57.584 63.692 153.711 63.692 157.772v270.097c0.633 36.536-26.914 67.425-63.278 70.955-13.668 0.898-27.289-2.343-39.090-9.294v26.531c0.141 24.586-13.027 47.322-34.427 59.435-21.392 12.113-47.665 11.707-68.674-1.070-2.187 23.016-16.011 43.307-36.622 53.765-20.619 10.458-45.15 9.638-65.019-2.187v28.257c42.346 24.032 68.432 69.034 68.253 117.722 0 75.383-61.114 136.49-136.497 136.49s-136.49-61.106-136.49-136.49c-0.18-48.688 25.906-93.69 68.245-117.722v-274.69c0.484-20.142-2.257-40.222-8.123-59.498-1.828-5.694-6.49-10.036-12.301-11.465-5.467-1.382-11.262 0.141-15.355 4.030-13.324 12.707-25.164 26.89-35.278 42.276-29.608 44.291-104.109 127.024-150.743 127.024-26.195 0.547-50.289-14.261-61.637-37.879zM398.988 823.198c0 56.537 45.83 102.367 102.367 102.367s102.367-45.83 102.367-102.367c0.164-29.194-12.27-57.037-34.122-76.406v76.406c0 37.692-30.553 68.245-68.245 68.245s-68.245-30.553-68.245-68.245v-76.406c-21.845 19.369-34.286 47.212-34.122 76.406zM333.609 387.19c11.567-17.542 25.094-33.708 40.316-48.196 12.551-11.871 30.303-16.503 47.056-12.27 17.073 4.257 30.78 16.956 36.34 33.646 7.060 22.79 10.411 46.564 9.911 70.416v392.412c0 18.846 15.277 34.122 34.122 34.122s34.122-15.277 34.122-34.122v-358.289c0-9.427 7.638-17.065 17.065-17.065 9.419 0 17.057 7.638 17.057 17.065v153.547c0 18.846 15.284 34.122 34.122 34.122 18.846 0 34.13-15.277 34.13-34.122v-153.547c0-9.427 7.638-17.065 17.057-17.065 9.427 0 17.065 7.638 17.065 17.065v102.367c0 18.846 15.277 34.122 34.122 34.122s34.122-15.277 34.122-34.122v-119.432c0-9.419 7.638-17.057 17.057-17.057 9.427 0 17.065 7.638 17.065 17.057v34.122c-0.023 9.052 3.585 17.737 10.013 24.11 7.037 6.974 16.729 10.591 26.617 9.927 18.432-2.406 32.068-18.338 31.615-36.918v-270.097c0-0.836-0.867-85.31-52.617-132.608-10.114-9.536-15.784-22.876-15.628-36.778v-52.414c0-9.427-7.638-17.065-17.065-17.065h-272.979c-9.427 0-17.065 7.638-17.065 17.065v6.24c0.023 31.982-12.824 62.629-35.638 85.037-28.905 28.062-80.6 83.193-102.063 136.865-35.114 87.731-104.585 208.889-140.278 244.582-8.123 8.115-10.84 15.628-8.076 22.314 6.186 10.715 17.76 17.174 30.131 16.807 23.188 0 86.060-57.482 122.299-111.841zM791.399 226.044c9.427 0 17.065 7.638 17.065 17.065v102.367c0 9.419-7.638 17.057-17.065 17.057-9.419 0-17.057-7.638-17.057-17.057v-102.367c0-9.427 7.638-17.065 17.057-17.065zM774.342 123.677c4.522 0 8.864 1.796 12.059 4.998 12.98 12.012 20.876 28.538 22.064 46.189-0.016 9.216-7.435 16.706-16.651 16.815-9.317 0.18-17.073-7.115-17.471-16.425-1.281-8.661-5.545-16.604-12.067-22.454-4.874-4.881-6.334-12.215-3.694-18.588 2.64-6.381 8.857-10.536 15.761-10.536zM518.42 4.244h17.057c9.427 0 17.065 7.638 17.065 17.065 0 9.419-7.638 17.057-17.065 17.057h-17.057c-9.427 0-17.065-7.638-17.065-17.057 0-9.427 7.638-17.065 17.065-17.065zM603.722 4.244h119.432c9.427 0 17.065 7.638 17.065 17.065 0 9.419-7.638 17.057-17.065 17.057h-119.432c-9.419 0-17.057-7.638-17.057-17.057 0-9.427 7.638-17.065 17.057-17.065zM364.865 677.508c6.81 0 12.965 4.038 15.667 10.286s1.437 13.504-3.226 18.463c-59.115 62.481-62.325 159.241-7.474 225.502 4.053 4.678 5.256 11.184 3.147 17.003-2.117 5.819-7.217 10.036-13.332 11.020s-12.278-1.421-16.112-6.287c-65.792-79.507-61.981-195.597 8.896-270.613 3.226-3.429 7.724-5.373 12.434-5.373zM660.595 722.705c4.022-2.062 8.708-2.445 13.012-1.054 4.311 1.39 7.888 4.428 9.95 8.458 37.301 72.634 27.71 160.514-24.383 223.385-3.827 4.866-9.997 7.271-16.112 6.287-6.108-0.984-11.208-5.202-13.324-11.020s-0.914-12.324 3.147-17.003c43.409-52.375 51.398-125.587 20.322-186.092-4.303-8.38-0.992-18.658 7.388-22.962z" />
<glyph unicode="&#xe95b;" glyph-name="clipboard" d="M959.313 664.508c-2.414 9.023-8.203 16.57-16.297 21.242l-29.43 16.992c-8.094 4.672-17.523 5.914-26.555 3.492-9.023-2.414-16.57-8.203-21.242-16.297l-17.563-30.414c-7.453 3.5-15.82 4.273-23.875 2.117-9.023-2.422-16.57-8.211-21.242-16.305l-1.109-1.914v129.578c0 41.359-33.641 75-75 75h-109.398c-2.445 16.93-17.008 30-34.602 30h-51v37c0 24.813-20.188 45-45 45h-110c-24.813 0-45-20.188-45-45v-37h-51c-17.594 0-32.164-13.070-34.602-30h-109.398c-41.359 0-75-33.641-75-75v-762c0-41.359 33.641-75 75-75h468.094c8.281 0 15 6.711 15 15s-6.719 15-15 15h-468.094c-24.813 0-45 20.188-45 45v762c0 24.813 20.188 45 45 45h109v-73c0-19.297 15.703-35 35-35h302c19.297 0 35 15.703 35 35v14h95v-269.734l-152.633-264.367c-5.516-9.547-8.016-20.406-7.227-31.406l6.688-93.703c0.586-8.195 5.164-15.578 12.242-19.75 3.906-2.297 8.289-3.461 12.695-3.461 3.578 0 7.164 0.773 10.508 2.32l86.234 39.992c10.328 4.789 18.797 12.531 24.484 22.383l7.008 12.133v-128.406h-562v734h40c8.281 0 15 6.711 15 15s-6.719 15-15 15h-45c-13.789 0-25-11.211-25-25v-744c0-13.789 11.211-25 25-25h572c13.781 0 25 11.211 25 25v185.375l29 50.227v-244.602c0-24.813-20.188-45-45-45h-51.914c-8.281 0-15-6.711-15-15 0-8.281 6.719-15 15-15h51.914c41.352 0 75 33.648 75 75v296.563l146.539 253.813c4.672 8.094 5.914 17.523 3.492 26.547-2.156 8.055-7.008 14.906-13.773 19.617l17.563 30.414c4.672 8.094 5.914 17.523 3.492 26.555zM891.766 674.937c1.375 2.383 4.43 3.203 6.82 1.828l29.43-16.992c1.555-0.898 2.125-2.289 2.328-3.031 0.195-0.75 0.398-2.227-0.5-3.789l-17.492-30.289-38.070 21.977zM829.086 630.336c0.898 1.555 2.289 2.125 3.031 2.32 0.75 0.211 2.227 0.406 3.781-0.492l84.828-48.977c1.563-0.898 2.133-2.281 2.328-3.031 0.203-0.742 0.398-2.227-0.5-3.781l-12.492-21.633-93.461 53.961zM362 915c0 8.273 6.727 15 15 15h110c8.273 0 15-6.727 15-15v-37h-140zM588 745c0-2.758-2.242-5-5-5h-302c-2.758 0-5 2.242-5 5v98c0 2.758 2.242 5 5 5h302c2.758 0 5-2.242 5-5zM718 789h-100v29h109c24.813 0 45-20.188 45-45v-181.547l-29-50.227v222.773c0 13.789-11.211 25-25 25zM801.602 582.719l93.461-53.961-183.891-318.516-93.469 53.961zM680.016 156.273c-2.586-4.477-6.438-7.992-11.125-10.164v-0.008l-79.656-36.938-6.172 86.461c-0.359 5 0.781 9.93 3.289 14.266l16.352 28.336 93.469-53.961zM216.938 123.125c2.852-2.539 6.414-3.781 9.953-3.781 4.141 0 8.258 1.703 11.219 5.039l29.742 33.484 23.023-27.461c4.617-5.516 11.391-8.766 18.578-8.938 7.195-0.125 14.102 2.766 18.969 8.055l27.688 30.063 30.688-34.734c5.492-6.211 14.969-6.797 21.172-1.313 6.211 5.484 6.797 14.961 1.313 21.172l-34.359 38.891c-4.68 5.297-11.414 8.375-18.477 8.445-0.086 0.008-0.172 0.008-0.258 0.008-6.977 0-13.664-2.93-18.391-8.063l-27.586-29.953-23.094 27.539c-4.672 5.57-11.523 8.828-18.805 8.938-7.281 0.164-14.211-2.961-19.039-8.398l-33.586-37.813c-5.508-6.195-4.945-15.68 1.25-21.18zM659.5 629c0 8.289-6.719 15-15 15h-426c-8.281 0-15-6.711-15-15s6.719-15 15-15h426c8.281 0 15 6.711 15 15zM220.5 534h178c8.281 0 15 6.711 15 15s-6.719 15-15 15h-178c-8.281 0-15-6.711-15-15s6.719-15 15-15zM553.5 549c0 8.289-6.719 15-15 15h-70c-8.281 0-15-6.711-15-15s6.719-15 15-15h70c8.281 0 15 6.711 15 15zM220.5 454h144c8.281 0 15 6.711 15 15s-6.719 15-15 15h-144c-8.281 0-15-6.711-15-15s6.719-15 15-15zM496.5 484h-68c-8.281 0-15-6.711-15-15s6.719-15 15-15h68c8.281 0 15 6.711 15 15s-6.719 15-15 15zM220.5 374h104c8.281 0 15 6.711 15 15s-6.719 15-15 15h-104c-8.281 0-15-6.711-15-15s6.719-15 15-15zM511.5 389c0 8.289-6.719 15-15 15h-108c-8.281 0-15-6.711-15-15s6.719-15 15-15h108c8.281 0 15 6.711 15 15zM220.5 294h104c8.281 0 15 6.711 15 15s-6.719 15-15 15h-104c-8.281 0-15-6.711-15-15s6.719-15 15-15z" />
<glyph unicode="&#xe95c;" glyph-name="route" d="M358.758 465.459c-38.758 43.776-90.436 67.874-145.545 67.874s-106.786-24.098-145.527-67.874c-78.711-88.934-78.711-233.609 0-322.543l145.527-164.403 145.527 164.403c78.729 88.934 78.729 233.609 0.017 322.543zM333.193 165.547l-119.962-135.526-119.979 135.526c-67.686 76.442-67.686 200.841 0 277.282 32.171 36.352 74.786 56.371 119.962 56.371s87.808-20.019 119.962-56.371c67.686-76.442 67.686-200.823 0.017-277.282zM831.949 541.747l110.319 124.348c59.358 66.901 59.358 175.718 0 242.62-29.355 33.075-68.54 51.285-110.336 51.285-41.779 0-80.964-18.21-110.319-51.285-59.358-66.901-59.358-175.718 0-242.62l110.336-124.348zM747.145 886.050c22.784 25.685 52.89 39.817 84.787 39.817 31.915 0 62.020-14.131 84.804-39.817 48.265-54.391 48.265-142.899 0-197.291l-84.787-95.59-84.804 95.59c-48.265 54.391-48.265 142.899 0 197.291zM897.775 29.577c-9.199 2.065-18.33-3.703-20.395-12.902-1.963-8.704-5.769-16.708-11.315-23.757-5.82-7.407-4.557-18.142 2.867-23.962 3.14-2.458 6.844-3.652 10.53-3.652 5.069 0 10.069 2.236 13.431 6.519 8.602 10.923 14.746 23.825 17.783 37.342 2.065 9.216-3.703 18.347-12.902 20.412zM546.048 430.933c-7.39 0.017-14.575 1.331-21.367 3.925-8.738 3.328-18.654-1.058-22.033-9.865-3.345-8.806 1.075-18.671 9.865-22.033 10.684-4.062 21.931-6.144 33.502-6.161h6.093c9.438 0 17.067 7.629 17.067 17.067s-7.629 17.067-17.067 17.067h-6.059zM505.532 538.863c3.089 0 6.195 0.836 9.011 2.577 7.561 4.71 15.923 7.595 24.815 8.585 9.37 1.041 16.128 9.472 15.104 18.842s-9.404 16.060-18.842 15.104c-14.029-1.553-27.204-6.093-39.151-13.551-8.004-4.983-10.428-15.514-5.444-23.518 3.243-5.188 8.806-8.038 14.507-8.038zM308.292-29.867h-34.133c-9.438 0-17.067-7.629-17.067-17.067s7.629-17.067 17.067-17.067h34.133c9.438 0 17.067 7.629 17.067 17.067s-7.646 17.067-17.067 17.067zM614.281 277.333c-1.468 0-2.918-0.034-4.369-0.102-9.421-0.375-16.725-8.329-16.35-17.749 0.358-9.182 7.936-16.367 17.033-16.367 0.239 0 0.478 0 0.717 0.017l33.434 0.068c9.438 0 17.067 7.629 17.067 17.067s-7.629 17.067-17.067 17.067h-30.464zM605.747 550.4h34.133c9.438 0 17.067 7.629 17.067 17.067s-7.629 17.067-17.067 17.067h-34.133c-9.438 0-17.067-7.629-17.067-17.067s7.629-17.067 17.067-17.067zM815.411 277.333c-9.438 0-17.067-7.629-17.067-17.067s7.629-17.067 17.067-17.067h34.133c9.438 0 17.067 7.629 17.067 17.067s-7.629 17.067-17.067 17.067h-34.133zM876.39 413.867c0 9.438-7.629 17.067-17.067 17.067h-34.133c-9.438 0-17.067-7.629-17.067-17.067s7.629-17.067 17.067-17.067h34.133c9.421 0 17.067 7.629 17.067 17.067zM713.011 243.2h34.133c9.438 0 17.067 7.629 17.067 17.067s-7.629 17.067-17.067 17.067h-34.133c-9.438 0-17.067-7.629-17.067-17.067s7.646-17.067 17.067-17.067zM742.281 550.4c9.438 0 17.067 7.629 17.067 17.067s-7.629 17.067-17.067 17.067h-34.133c-9.438 0-17.067-7.629-17.067-17.067s7.629-17.067 17.067-17.067h34.133zM620.39 430.933c-9.438 0-17.067-7.629-17.067-17.067s7.629-17.067 17.067-17.067h34.133c9.438 0 17.067 7.629 17.067 17.067s-7.629 17.067-17.067 17.067h-34.133zM773.99 413.867c0 9.438-7.629 17.067-17.067 17.067h-34.133c-9.438 0-17.067-7.629-17.067-17.067s7.629-17.067 17.067-17.067h34.133c9.421 0 17.067 7.629 17.067 17.067zM1014.204 351.881c-1.502 9.318-10.291 15.684-19.558 14.148-9.318-1.485-15.65-10.257-14.148-19.558 0.478-3.038 0.751-6.127 0.717-9.421 0-5.734-0.819-11.401-2.423-16.862-2.645-9.045 2.526-18.534 11.588-21.18 1.604-0.461 3.209-0.683 4.796-0.683 7.39 0 14.199 4.813 16.384 12.271 2.509 8.585 3.789 17.476 3.789 26.334 0.034 4.915-0.341 9.95-1.143 14.95zM717.892-29.867h-34.133c-9.438 0-17.067-7.629-17.067-17.067s7.629-17.067 17.067-17.067h34.133c9.438 0 17.067 7.629 17.067 17.067s-7.646 17.067-17.067 17.067zM615.492-29.867h-34.133c-9.438 0-17.067-7.629-17.067-17.067s7.629-17.067 17.067-17.067h34.133c9.438 0 17.067 7.629 17.067 17.067s-7.646 17.067-17.067 17.067zM803.243 106.667c0 9.438-7.629 17.067-17.067 17.067h-34.133c-9.438 0-17.067-7.629-17.067-17.067s7.629-17.067 17.067-17.067h34.133c9.421 0 17.067 7.629 17.067 17.067zM700.843 106.667c0 9.438-7.629 17.067-17.067 17.067h-34.133c-9.438 0-17.067-7.629-17.067-17.067s7.629-17.067 17.067-17.067h34.133c9.421 0 17.067 7.629 17.067 17.067zM819.081-29.867h-32.939c-9.438 0-17.067-7.629-17.067-17.067s7.629-17.067 17.067-17.067l33.638 0.017 0.495 17.067v-17.067c9.438 0 16.469 7.629 16.469 17.067 0 9.421-8.226 17.050-17.664 17.050zM879.462 60.262c3.686 0 7.424 1.195 10.53 3.652 7.424 5.837 8.687 16.572 2.867 23.962-8.585 10.906-19.661 19.917-32.068 26.078-8.482 4.215-18.688 0.751-22.886-7.68-4.198-8.448-0.751-18.688 7.68-22.886 7.902-3.908 14.967-9.66 20.429-16.623 3.379-4.267 8.38-6.502 13.449-6.502zM944.555 281.958c-7.322-3.072-15.070-4.625-23.074-4.625h-3.669c-9.438 0-17.067-7.629-17.067-17.067s7.629-17.067 17.067-17.067h3.669c12.561 0 24.764 2.458 36.267 7.287 8.704 3.652 12.783 13.653 9.131 22.34-3.635 8.687-13.705 12.783-22.323 9.131zM478.362 450.475c8.943 2.953 13.824 12.595 10.889 21.555-1.963 5.99-2.97 12.254-2.97 18.569 0.017 2.577 0.171 5.154 0.478 7.663 1.178 9.353-5.444 17.903-14.797 19.063-9.643 1.075-17.903-5.478-19.063-14.797-0.478-3.857-0.734-7.782-0.751-11.844 0-10.035 1.57-19.9 4.659-29.321 2.372-7.185 9.045-11.742 16.213-11.742 1.775 0 3.584 0.256 5.342 0.853zM410.692-29.867h-34.133c-9.438 0-17.067-7.629-17.067-17.067s7.629-17.067 17.067-17.067h34.133c9.438 0 17.067 7.629 17.067 17.067s-7.646 17.067-17.067 17.067zM582.349 96.529c6.485 0 12.663 3.703 15.531 9.967 3.908 8.585 0.154 18.705-8.414 22.613-8.004 3.669-15.258 9.182-20.958 15.974-6.076 7.219-16.828 8.158-24.047 2.082-7.219-6.059-8.158-16.828-2.082-24.047 8.943-10.633 20.309-19.302 32.887-25.037 2.304-1.041 4.71-1.553 7.083-1.553zM968.465 418.338c-12.186 7.066-25.498 11.213-39.543 12.322-9.37 0.683-17.613-6.263-18.347-15.684-0.734-9.404 6.281-17.613 15.684-18.347 8.909-0.7 17.357-3.328 25.088-7.817 2.697-1.57 5.649-2.304 8.55-2.304 5.888 0 11.622 3.055 14.78 8.499 4.727 8.141 1.946 18.586-6.212 23.33zM513.092-29.867h-34.133c-9.438 0-17.067-7.629-17.067-17.067s7.629-17.067 17.067-17.067h34.133c9.438 0 17.067 7.629 17.067 17.067s-7.646 17.067-17.067 17.067zM555.605 194.748c1.69 8.772 5.239 16.879 10.564 24.115 5.581 7.578 3.959 18.261-3.635 23.859-7.595 5.564-18.261 3.959-23.859-3.635-8.346-11.366-13.943-24.115-16.606-37.922-1.775-9.25 4.284-18.193 13.551-19.985 1.075-0.205 2.167-0.307 3.226-0.307 8.021 0.034 15.172 5.717 16.759 13.875zM836.147 704c51.746 0 93.867 42.121 93.867 93.867s-42.121 93.867-93.867 93.867-93.867-42.121-93.867-93.867 42.121-93.867 93.867-93.867zM836.147 857.6c32.939 0 59.733-26.795 59.733-59.733s-26.795-59.733-59.733-59.733-59.733 26.795-59.733 59.733 26.812 59.733 59.733 59.733zM213.214 430.933c-56.474 0-102.4-45.926-102.4-102.4s45.926-102.4 102.4-102.4 102.4 45.926 102.4 102.4-45.926 102.4-102.4 102.4zM213.214 260.267c-37.649 0-68.267 30.618-68.267 68.267s30.618 68.267 68.267 68.267 68.267-30.618 68.267-68.267-30.618-68.267-68.267-68.267z" />
<glyph unicode="&#xe95d;" glyph-name="two-hours" d="M814.6 48.1h-202.1l187.9 221.2c0.4 0.5 0.8 1 1.2 1.6 35.3 52.3 23.6 123.1-26.8 161.2-61.2 44-146.5 30-190.5-31.2-16.7-23.2-25.7-51.1-25.7-79.7 0-9.4 7.6-17.1 17.1-17.1s17.1 7.6 17.1 17.1c0 56.6 45.8 102.4 102.4 102.4 21.4 0 42.3-6.7 59.7-19.2 35.3-27 43.5-76.8 18.8-113.7l-211-248.5c-6.1-7.2-5.2-18 2-24.1 3.1-2.6 7-4.1 11-4.1h238.9c9.4 0 17.1 7.6 17.1 17.1s-7.7 17-17.1 17v0zM461.2 55.1c0.4 9.4-7 17.3-16.4 17.7 0 0 0 0 0 0-222.7 8.3-401.4 186.7-410 409.3h67.7c9.4 0 17.1 7.6 17.1 17.1s-7.6 17.1-17.1 17.1h-67.8c8.5 222.2 186.8 400.5 409 409v-50.6c0-9.4 7.6-17.1 17.1-17.1s17.1 7.6 17.1 17.1v50.6c219.2-8.5 396.1-182.1 408.7-401.1l-66.6 66.6c-6.8 6.5-17.6 6.4-24.1-0.4-6.4-6.6-6.4-17.1 0-23.7l95.3-95.3c1.8-2.2 4.1-3.9 6.7-4.9 0.7-0.2 1.3-0.4 2-0.5 1.2-0.4 2.4-0.7 3.6-0.9 0.2 0 0.3 0 0.5 0s0.3 0 0.5 0c1.3 0.1 2.6 0.4 3.8 0.8 0.7 0.1 1.4 0.2 2.1 0.4 2.3 0.8 4.4 2.1 6.2 3.9l96.6 96.5c6.5 6.8 6.4 17.6-0.4 24.1-6.6 6.4-17.1 6.4-23.7 0l-68.2-68.2c-12.2 244.6-214 436.8-458.9 437.2-0.4 0-0.8 0.2-1.2 0.2s-0.8-0.2-1.2-0.2c-253.6-0.4-459-205.8-459.4-459.4 0-0.4-0.2-0.8-0.2-1.2s0.2-0.8 0.2-1.2c0.4-247.3 196.1-450.1 443.3-459.3h0.6c9.2 0 16.7 7.3 17.1 16.4v0zM690.1 728.5c-6.7 6.7-17.5 6.7-24.1 0l-183.4-183.4c-13.9 6.2-29.7 6.2-43.5 0l-86.8 86.8c-6.8 6.5-17.6 6.4-24.1-0.4-6.4-6.6-6.4-17.1 0-23.7l86.7-86.7c-12.2-25.5-1.4-56 24.1-68.2 19.6-9.3 42.9-5.3 58.2 10 15.4 15.3 19.4 38.7 9.9 58.1l183.2 183.2c6.5 6.8 6.5 17.6-0.2 24.3v0zM472.9 487.1c0 0 0 0 0 0-6.8-6.5-17.4-6.5-24.1 0-6.7 6.7-6.7 17.5 0 24.1 6.7 6.7 17.5 6.7 24.1 0 6.6-6.6 6.6-17.4 0-24.1v0z" />
</font>
</defs>
</svg>
